<svg width="27" height="27" viewBox="0 0 27 27" fill="none" xmlns="http://www.w3.org/2000/svg">
<path d="M23.6697 22.9434C18.2652 28.3522 9.46561 28.3522 4.05664 22.9434C-1.35221 17.5344 -1.35221 8.73499 4.05664 3.32836C5.48796 1.89945 7.23287 0.809043 9.23968 0.0979983C9.87185 -0.123268 10.5717 0.0371003 11.0412 0.50889C11.5153 0.982956 11.6756 1.68273 11.4522 2.31034C10.0931 6.1435 11.0187 10.2926 13.8631 13.1371C16.7031 15.9791 20.8523 16.9026 24.69 15.5481C25.3176 15.3247 26.0196 15.485 26.4914 15.9591C26.9656 16.4285 27.1236 17.1307 26.9001 17.7605C26.1934 19.7672 25.1009 21.5121 23.6697 22.9434Z" fill="#FAFAFA"/>
</svg>
