<svg width="21" height="21" viewBox="0 0 21 21" fill="none" xmlns="http://www.w3.org/2000/svg">
<path d="M18.4097 17.8449C14.2063 22.0517 7.36214 22.0517 3.15517 17.8449C-1.05172 13.6379 -1.05172 6.79388 3.15517 2.58873C4.26841 1.47735 5.62556 0.629255 7.18642 0.0762209C7.6781 -0.0958755 8.22246 0.0288558 8.58756 0.395804C8.95637 0.764521 9.08102 1.30879 8.90723 1.79693C7.8502 4.77828 8.57012 8.00538 10.7824 10.2178C12.9913 12.4282 16.2185 13.1464 19.2033 12.093C19.6915 11.9192 20.2375 12.0439 20.6045 12.4126C20.9733 12.7777 21.0961 13.3238 20.9223 13.8138C20.3727 15.3745 19.5229 16.7316 18.4097 17.8449Z" fill="#FAFAFA"/>
</svg>
