<svg width="25" height="24" viewBox="0 0 25 24" fill="none" xmlns="http://www.w3.org/2000/svg">
<path d="M24.0101 14.187V9.813C21.8621 9.047 21.2841 9.011 20.9831 8.284C20.6801 7.555 21.0661 7.115 22.0421 5.061L18.9491 1.968C16.9231 2.931 16.4611 3.332 15.7251 3.027C14.9981 2.725 14.9571 2.138 14.1981 0H9.8231C9.0591 2.144 9.0231 2.725 8.2941 3.027C7.5421 3.34 7.0911 2.927 5.0711 1.968L1.9781 5.061C2.9551 7.116 3.3401 7.554 3.0371 8.285C2.7351 9.012 2.1561 9.049 0.0101013 9.813V14.188C2.1491 14.948 2.7351 14.988 3.0371 15.716C3.3411 16.45 2.9561 16.883 1.9781 18.939L5.0711 22.032C7.0701 21.082 7.5411 20.659 8.2941 20.973C9.0221 21.275 9.0581 21.853 9.8231 24H14.1971C14.9551 21.869 14.9961 21.277 15.7341 20.969C16.4791 20.661 16.9201 21.068 18.9491 22.031L22.0421 18.938C21.0671 16.888 20.6801 16.446 20.9831 15.715C21.2831 14.989 21.8631 14.952 24.0101 14.187ZM19.1351 14.951C18.5581 16.345 19.0671 17.409 19.6231 18.529L18.5391 19.613C17.4461 19.07 16.3781 18.537 14.9661 19.123C13.5701 19.704 13.1761 20.816 12.7781 22H11.2441C10.8461 20.815 10.4531 19.703 9.0611 19.125C7.6421 18.537 6.5541 19.08 5.4821 19.613L4.3991 18.529C4.9561 17.411 5.4651 16.349 4.8861 14.949C4.3071 13.558 3.1951 13.165 2.0101 12.767V11.234C3.1951 10.836 4.3071 10.443 4.8851 9.05C5.4631 7.656 4.9531 6.591 4.3971 5.471L5.4811 4.387C6.5631 4.925 7.6431 5.464 9.0611 4.875C10.4531 4.298 10.8461 3.185 11.2441 2H12.7781C13.1761 3.185 13.5701 4.297 14.9621 4.875C16.3811 5.463 17.4681 4.92 18.5411 4.387L19.6251 5.471C19.0691 6.592 18.5601 7.658 19.1371 9.051C19.7141 10.442 20.8261 10.835 22.0121 11.234V12.768C20.8241 13.166 19.7101 13.559 19.1351 14.951ZM12.0101 9C13.6641 9 15.0101 10.346 15.0101 12C15.0101 13.654 13.6641 15 12.0101 15C10.3561 15 9.0101 13.654 9.0101 12C9.0101 10.346 10.3561 9 12.0101 9ZM12.0101 7C9.2481 7 7.0101 9.238 7.0101 12C7.0101 14.762 9.2481 17 12.0101 17C14.7721 17 17.0101 14.762 17.0101 12C17.0101 9.238 14.7721 7 12.0101 7Z" fill="#444444"/>
</svg>
