<svg width="21" height="21" viewBox="0 0 21 21" fill="none" xmlns="http://www.w3.org/2000/svg">
<path fill-rule="evenodd" clip-rule="evenodd" d="M3.06066 0.93934C2.47487 0.353553 1.52513 0.353553 0.93934 0.93934C0.353553 1.52513 0.353553 2.47487 0.93934 3.06066L8.36403 10.4854L0.93934 17.91C0.353553 18.4958 0.353553 19.4456 0.93934 20.0314C1.52513 20.6171 2.47487 20.6171 3.06066 20.0314L10.4854 12.6067L17.9099 20.0312C18.4957 20.617 19.4454 20.617 20.0312 20.0312C20.617 19.4454 20.617 18.4957 20.0312 17.9099L12.6067 10.4854L20.0312 3.0608C20.617 2.47501 20.617 1.52527 20.0312 0.939481C19.4454 0.353694 18.4957 0.353695 17.9099 0.939481L10.4854 8.36403L3.06066 0.93934Z" fill="#444444"/>
</svg>
