<svg width="25" height="24" viewBox="0 0 25 24" fill="none" xmlns="http://www.w3.org/2000/svg">
<path d="M21.0498 20.3944C16.2459 25.2023 8.42397 25.2023 3.61601 20.3944C-1.19187 15.5863 -1.19187 7.76453 3.61601 2.95858C4.88829 1.68842 6.43932 0.719158 8.22315 0.0871107C8.78508 -0.109573 9.4072 0.0329785 9.82446 0.452353C10.246 0.87375 10.3884 1.49578 10.1898 2.05366C8.98176 5.46096 9.80452 9.14912 12.3329 11.6776C14.8573 14.2039 18.5455 15.0247 21.9567 13.8207C22.5146 13.6221 23.1387 13.7646 23.558 14.186C23.9795 14.6033 24.12 15.2274 23.9213 15.7873C23.2932 17.5711 22.322 19.1221 21.0498 20.3944ZM5.79523 5.1378C2.18923 8.74381 2.18923 14.6112 5.79523 18.2152C9.648 22.07 16.2098 21.7227 19.5689 17.4284C16.1053 17.6451 12.6941 16.395 10.1537 13.8565C7.61326 11.3181 6.36515 7.90679 6.58177 4.44334C6.30495 4.66025 6.042 4.89103 5.79523 5.1378Z" fill="#444444"/>
</svg>
