<svg width="30" height="30" viewBox="0 0 30 30" fill="none" xmlns="http://www.w3.org/2000/svg">
<path d="M26.2996 25.493C20.2947 31.5028 10.5173 31.5028 4.50738 25.493C-1.50246 19.4829 -1.50246 9.70566 4.50738 3.69823C6.09773 2.11052 8.03652 0.898947 10.2663 0.108888C10.9687 -0.136967 11.7464 0.0412231 12.2679 0.565441C12.7948 1.09219 12.9729 1.86972 12.7246 2.56708C11.2146 6.82619 12.243 11.4364 15.4035 14.597C18.559 17.7548 23.1692 18.7809 27.4333 17.2759C28.1306 17.0276 28.9107 17.2058 29.4349 17.7325C29.9618 18.2541 30.1373 19.0343 29.889 19.7342C29.1038 21.9639 27.8898 23.9026 26.2996 25.493ZM7.23141 6.42226C2.72391 10.9298 2.72391 18.264 7.23141 22.769C12.0474 27.5875 20.2496 27.1534 24.4485 21.7855C20.1191 22.0564 15.855 20.4938 12.6795 17.3207C9.50394 14.1477 7.94381 9.88349 8.21459 5.55418C7.86856 5.82532 7.53987 6.11379 7.23141 6.42226Z" fill="#444444"/>
</svg>
