<svg width="25" height="25" viewBox="0 0 25 25" fill="none" xmlns="http://www.w3.org/2000/svg">
<path d="M11.25 1.25C11.25 0.918479 11.3817 0.600537 11.6161 0.366116C11.8505 0.131696 12.1685 0 12.5 0C12.8315 0 13.1495 0.131696 13.3839 0.366116C13.6183 0.600537 13.75 0.918479 13.75 1.25V3.75C13.75 4.08152 13.6183 4.39946 13.3839 4.63388C13.1495 4.8683 12.8315 5 12.5 5C12.1685 5 11.8505 4.8683 11.6161 4.63388C11.3817 4.39946 11.25 4.08152 11.25 3.75V1.25ZM11.25 21.25C11.25 20.9185 11.3817 20.6005 11.6161 20.3661C11.8505 20.1317 12.1685 20 12.5 20C12.8315 20 13.1495 20.1317 13.3839 20.3661C13.6183 20.6005 13.75 20.9185 13.75 21.25V23.75C13.75 24.0815 13.6183 24.3995 13.3839 24.6339C13.1495 24.8683 12.8315 25 12.5 25C12.1685 25 11.8505 24.8683 11.6161 24.6339C11.3817 24.3995 11.25 24.0815 11.25 23.75V21.25ZM12.5 18.75C10.8424 18.75 9.25268 18.0915 8.08058 16.9194C6.90848 15.7473 6.25 14.1576 6.25 12.5C6.25 10.8424 6.90848 9.25268 8.08058 8.08058C9.25268 6.90848 10.8424 6.25 12.5 6.25C14.1576 6.25 15.7473 6.90848 16.9194 8.08058C18.0915 9.25268 18.75 10.8424 18.75 12.5C18.75 14.1576 18.0915 15.7473 16.9194 16.9194C15.7473 18.0915 14.1576 18.75 12.5 18.75ZM12.5 16.25C13.4946 16.25 14.4484 15.8549 15.1517 15.1517C15.8549 14.4484 16.25 13.4946 16.25 12.5C16.25 11.5054 15.8549 10.5516 15.1517 9.84835C14.4484 9.14509 13.4946 8.75 12.5 8.75C11.5054 8.75 10.5516 9.14509 9.84835 9.84835C9.14509 10.5516 8.75 11.5054 8.75 12.5C8.75 13.4946 9.14509 14.4484 9.84835 15.1517C10.5516 15.8549 11.5054 16.25 12.5 16.25ZM1.25 13.75C0.918479 13.75 0.600537 13.6183 0.366116 13.3839C0.131696 13.1495 0 12.8315 0 12.5C0 12.1685 0.131696 11.8505 0.366116 11.6161C0.600537 11.3817 0.918479 11.25 1.25 11.25H3.75C4.08152 11.25 4.39946 11.3817 4.63388 11.6161C4.8683 11.8505 5 12.1685 5 12.5C5 12.8315 4.8683 13.1495 4.63388 13.3839C4.39946 13.6183 4.08152 13.75 3.75 13.75H1.25ZM21.25 13.75C20.9185 13.75 20.6005 13.6183 20.3661 13.3839C20.1317 13.1495 20 12.8315 20 12.5C20 12.1685 20.1317 11.8505 20.3661 11.6161C20.6005 11.3817 20.9185 11.25 21.25 11.25H23.75C24.0815 11.25 24.3995 11.3817 24.6339 11.6161C24.8683 11.8505 25 12.1685 25 12.5C25 12.8315 24.8683 13.1495 24.6339 13.3839C24.3995 13.6183 24.0815 13.75 23.75 13.75H21.25ZM20.3663 2.86625C20.602 2.63855 20.9178 2.51256 21.2455 2.51541C21.5732 2.51826 21.8868 2.64972 22.1185 2.88148C22.3503 3.11324 22.4817 3.42675 22.4846 3.7545C22.4874 4.08224 22.3614 4.398 22.1337 4.63375L20.1575 6.61C19.9217 6.8377 19.606 6.96369 19.2782 6.96084C18.9505 6.95799 18.637 6.82653 18.4052 6.59477C18.1735 6.36301 18.042 6.0495 18.0392 5.72175C18.0363 5.39401 18.1623 5.07825 18.39 4.8425L20.365 2.86625H20.3663ZM4.63375 22.1337C4.51844 22.2531 4.38051 22.3484 4.22801 22.4139C4.0755 22.4794 3.91148 22.5139 3.7455 22.5153C3.57953 22.5168 3.41493 22.4851 3.26131 22.4223C3.10769 22.3594 2.96812 22.2666 2.85076 22.1492C2.73339 22.0319 2.64057 21.8923 2.57772 21.7387C2.51487 21.5851 2.48324 21.4205 2.48469 21.2545C2.48613 21.0885 2.52061 20.9245 2.58612 20.772C2.65163 20.6195 2.74686 20.4816 2.86625 20.3663L4.8425 18.39C4.95781 18.2706 5.09574 18.1754 5.24824 18.1099C5.40075 18.0444 5.56477 18.0099 5.73075 18.0084C5.89672 18.007 6.06132 18.0386 6.21494 18.1015C6.36856 18.1643 6.50813 18.2571 6.62549 18.3745C6.74286 18.4919 6.83568 18.6314 6.89853 18.7851C6.96138 18.9387 6.99301 19.1033 6.99156 19.2693C6.99012 19.4352 6.95564 19.5993 6.89013 19.7518C6.82462 19.9043 6.72939 20.0422 6.61 20.1575L4.635 22.1337H4.63375ZM2.86625 4.63375C2.63855 4.398 2.51256 4.08224 2.51541 3.7545C2.51826 3.42675 2.64972 3.11324 2.88148 2.88148C3.11324 2.64972 3.42675 2.51826 3.7545 2.51541C4.08224 2.51256 4.398 2.63855 4.63375 2.86625L6.61 4.8425C6.8377 5.07825 6.96369 5.39401 6.96084 5.72175C6.95799 6.0495 6.82653 6.36301 6.59477 6.59477C6.36301 6.82653 6.0495 6.95799 5.72175 6.96084C5.39401 6.96369 5.07825 6.8377 4.8425 6.61L2.86625 4.635V4.63375ZM22.1337 20.3663C22.3614 20.602 22.4874 20.9178 22.4846 21.2455C22.4817 21.5732 22.3503 21.8868 22.1185 22.1185C21.8868 22.3503 21.5732 22.4817 21.2455 22.4846C20.9178 22.4874 20.602 22.3614 20.3663 22.1337L18.39 20.1575C18.1623 19.9217 18.0363 19.606 18.0392 19.2782C18.042 18.9505 18.1735 18.637 18.4052 18.4052C18.637 18.1735 18.9505 18.042 19.2782 18.0392C19.606 18.0363 19.9217 18.1623 20.1575 18.39L22.1337 20.365V20.3663Z" fill="#444444"/>
</svg>
