<svg width="34" height="26" viewBox="0 0 34 26" fill="none" xmlns="http://www.w3.org/2000/svg">
<path d="M4.25 3.19312C3.66562 3.19312 3.1875 3.67209 3.1875 4.2575V5.72766L14.6426 15.1474C16.0172 16.2783 17.9895 16.2783 19.3641 15.1474L30.8125 5.72766V4.2575C30.8125 3.67209 30.3344 3.19312 29.75 3.19312H4.25ZM3.1875 9.85876V21.2875C3.1875 21.8729 3.66562 22.3519 4.25 22.3519H29.75C30.3344 22.3519 30.8125 21.8729 30.8125 21.2875V9.85876L21.3828 17.6154C18.8328 19.7109 15.1605 19.7109 12.6172 17.6154L3.1875 9.85876ZM0 4.2575C0 1.90922 1.90586 0 4.25 0H29.75C32.0941 0 34 1.90922 34 4.2575V21.2875C34 23.6358 32.0941 25.545 29.75 25.545H4.25C1.90586 25.545 0 23.6358 0 21.2875V4.2575Z" fill="#444444"/>
</svg>
