<svg width="36" height="36" viewBox="0 0 36 36" fill="none" xmlns="http://www.w3.org/2000/svg">
<g clip-path="url(#clip0_156_217)">
<path fill-rule="evenodd" clip-rule="evenodd" d="M17.9464 0C8.02249 0 0 8.08163 0 18.0797C0 26.0717 5.14028 32.8368 12.2712 35.2311C13.1628 35.4111 13.4893 34.8421 13.4893 34.3635C13.4893 33.9443 13.46 32.5076 13.46 31.0107C8.46771 32.0885 7.42812 28.8555 7.42812 28.8555C6.62584 26.7601 5.4371 26.2216 5.4371 26.2216C3.80314 25.114 5.55612 25.114 5.55612 25.114C7.36861 25.2338 8.31967 26.9699 8.31967 26.9699C9.92388 29.7235 12.5089 28.9455 13.5489 28.4664C13.6973 27.299 14.173 26.4909 14.6781 26.042C10.6964 25.6228 6.50718 24.0664 6.50718 17.1217C6.50718 15.1461 7.21984 13.5298 8.34906 12.2727C8.1709 11.8238 7.54678 9.96759 8.52759 7.48322C8.52759 7.48322 10.0429 7.0042 13.4596 9.33906C14.9224 8.9433 16.431 8.74198 17.9464 8.74028C19.4617 8.74028 21.0064 8.95004 22.4328 9.33906C25.8498 7.0042 27.3651 7.48322 27.3651 7.48322C28.346 9.96759 27.7215 11.8238 27.5433 12.2727C28.7023 13.5298 29.3856 15.1461 29.3856 17.1217C29.3856 24.0664 25.1963 25.5927 21.1849 26.042C21.8388 26.6106 22.403 27.688 22.403 29.3944C22.403 31.8189 22.3736 33.7647 22.3736 34.3631C22.3736 34.8421 22.7006 35.4111 23.5918 35.2315C30.7227 32.8364 35.863 26.0717 35.863 18.0797C35.8924 8.08163 27.8405 0 17.9464 0Z" fill="#444444"/>
</g>
<defs>
<clipPath id="clip0_156_217">
<rect width="36" height="35.2653" fill="white"/>
</clipPath>
</defs>
</svg>
