<svg width="34" height="34" viewBox="0 0 34 34" fill="none" xmlns="http://www.w3.org/2000/svg">
<path fill-rule="evenodd" clip-rule="evenodd" d="M26.3218 0H7.67822C5.64363 0.0058675 3.69403 0.820475 2.25535 2.26586C0.816669 3.71125 0.00584028 5.66993 0 7.71401V26.2888C0.00656983 28.3324 0.817721 30.2903 2.25632 31.7351C3.69493 33.1799 5.6441 33.9941 7.67822 34H26.3218C28.3559 33.9941 30.3051 33.1799 31.7437 31.7351C33.1823 30.2903 33.9934 28.3324 34 26.2888V7.71401C33.9942 5.66993 33.1833 3.71125 31.7446 2.26586C30.306 0.820475 28.3564 0.0058675 26.3218 0ZM17.9076 13.179H13.6105V27.5173H18.0874V20.4566C18.0874 18.6664 18.4803 16.9401 20.7769 16.9401C23.0734 16.9401 23.1066 18.9833 23.1066 20.5706V27.5035H27.5863V19.7033C27.5863 16.0144 26.7479 13.179 22.2129 13.179C20.0298 13.179 18.5688 14.3243 17.9684 15.4029H17.9076V13.179ZM10.6751 10.1373C10.9311 9.75241 11.0677 9.29988 11.0677 8.83695C11.067 8.2164 10.8213 7.62149 10.3845 7.1827C9.94778 6.74391 9.35562 6.49707 8.73796 6.49634C8.27717 6.49634 7.82674 6.63361 7.44361 6.8908C7.06049 7.14799 6.76188 7.51354 6.58555 7.94124C6.40921 8.36893 6.36308 8.83954 6.45297 9.29358C6.54286 9.74761 6.76475 10.1647 7.09057 10.492C7.41639 10.8193 7.83152 11.0423 8.28344 11.1326C8.73537 11.2229 9.20381 11.1765 9.62951 10.9994C10.0552 10.8222 10.4191 10.5222 10.6751 10.1373ZM11.0677 13.179H6.41374V27.5035H11.0677V13.179Z" fill="#444444"/>
</svg>
