<svg width="34" height="34" viewBox="0 0 34 34" fill="none" xmlns="http://www.w3.org/2000/svg">
<path fill-rule="evenodd" clip-rule="evenodd" d="M26.3218 0H7.67822C5.64363 0.0058675 3.69403 0.820475 2.25535 2.26586C0.816669 3.71125 0.00584028 5.66993 0 7.71401V26.2888C0.00656983 28.3324 0.817721 30.2903 2.25632 31.7351C3.69493 33.1799 5.6441 33.9941 7.67822 34H26.3218C28.3559 33.9941 30.3051 33.1799 31.7437 31.7351C33.1823 30.2903 33.9934 28.3324 34 26.2888V7.71401C33.9942 5.66993 33.1833 3.71125 31.7446 2.26586C30.306 0.820475 28.3564 0.0058675 26.3218 0ZM17.9076 13.1791H13.6105V27.5175H18.0874V20.4567C18.0874 18.6665 18.4803 16.9402 20.7769 16.9402C23.0734 16.9402 23.1066 18.9834 23.1066 20.5707V27.5036H27.5863V19.7034C27.5863 16.0146 26.7479 13.1791 22.2129 13.1791C20.0298 13.1791 18.5688 14.3244 17.9684 15.403H17.9076V13.1791ZM10.6751 10.1374C10.9311 9.75252 11.0677 9.29998 11.0677 8.83705C11.067 8.21651 10.8213 7.6216 10.3845 7.18281C9.94777 6.74402 9.35562 6.49718 8.73796 6.49644C8.27717 6.49644 7.82674 6.63372 7.44361 6.89091C7.06049 7.1481 6.76188 7.51365 6.58554 7.94134C6.40921 8.36903 6.36307 8.83965 6.45297 9.29368C6.54286 9.74772 6.76475 10.1648 7.09057 10.4921C7.41639 10.8195 7.83152 11.0424 8.28344 11.1327C8.73537 11.223 9.20381 11.1767 9.62951 10.9995C10.0552 10.8223 10.4191 10.5223 10.6751 10.1374ZM11.0677 13.1791H6.41374V27.5036H11.0677V13.1791Z" fill="#FAFAFA"/>
</svg>
