<svg width="34" height="34" viewBox="0 0 34 34" fill="none" xmlns="http://www.w3.org/2000/svg">
<g clip-path="url(#clip0_156_222)">
<path fill-rule="evenodd" clip-rule="evenodd" d="M7.67822 0H26.3218C28.3564 0.0058675 30.306 0.820475 31.7446 2.26586C33.1833 3.71125 33.9942 5.66993 34 7.71401V26.2888C33.9934 28.3324 33.1823 30.2903 31.7437 31.7351C30.3051 33.1799 28.3559 33.9941 26.3218 34H7.67822C5.64411 33.9941 3.69493 33.1799 2.25632 31.7351C0.817721 30.2903 0.00656983 28.3324 0 26.2888V7.71401C0.00584028 5.66993 0.816669 3.71125 2.25535 2.26586C3.69403 0.820475 5.64363 0.0058675 7.67822 0Z" fill="#444444"/>
<path fill-rule="evenodd" clip-rule="evenodd" d="M13.6105 13.179H17.9076V15.4029H17.9684C18.5689 14.3243 20.0298 13.179 22.2129 13.179C26.7479 13.179 27.5863 16.0144 27.5863 19.7033V27.5035H23.1066V20.5706C23.1066 18.9833 23.0734 16.9401 20.7769 16.9401C18.4803 16.9401 18.0874 18.6664 18.0874 20.4566V27.5173H13.6105V13.179ZM11.0677 8.83695C11.0677 9.29988 10.9311 9.75241 10.6751 10.1373C10.4191 10.5222 10.0552 10.8222 9.62951 10.9994C9.20381 11.1765 8.73537 11.2229 8.28344 11.1326C7.83152 11.0423 7.41639 10.8193 7.09057 10.492C6.76475 10.1647 6.54286 9.74761 6.45297 9.29358C6.36308 8.83954 6.40921 8.36893 6.58555 7.94124C6.76188 7.51354 7.06049 7.14799 7.44362 6.8908C7.82674 6.63361 8.27718 6.49634 8.73796 6.49634C9.35562 6.49707 9.94778 6.74391 10.3845 7.1827C10.8213 7.62149 11.067 8.21641 11.0677 8.83695ZM6.41374 13.179H11.0677V27.5035H6.41374V13.179Z" fill="white"/>
</g>
<defs>
<clipPath id="clip0_156_222">
<rect width="34" height="34" fill="white"/>
</clipPath>
</defs>
</svg>
