<svg width="21" height="30" viewBox="0 0 21 30" fill="none" xmlns="http://www.w3.org/2000/svg">
<path d="M10.2362 29.6367C9.88648 29.6367 9.56344 29.452 9.38562 29.151L7.91333 26.6605C4.87656 21.5265 2.00805 16.6772 1.03333 14.7209C0.34642 13.3125 0 11.806 0 10.2359C0.000329297 4.59172 4.59204 0 10.2362 0C15.8807 0 20.4724 4.59172 20.4724 10.2359C20.4724 11.8046 20.1263 13.3112 19.4437 14.713C19.4367 14.7268 19.4298 14.7403 19.4229 14.7538C18.4327 16.7312 15.5794 21.5551 12.5594 26.6609L11.0868 29.1513C10.9093 29.452 10.5859 29.6367 10.2362 29.6367ZM10.2362 1.97578C5.68136 1.97578 1.97611 5.68136 1.97611 10.2359C1.97611 11.503 2.25502 12.7184 2.80528 13.8479C3.74443 15.7318 6.72688 20.774 9.61086 25.6496L10.2362 26.7073L10.8586 25.6549C13.7442 20.777 16.7276 15.7328 17.6707 13.84C17.6747 13.8328 17.6783 13.8252 17.6823 13.818C18.223 12.6964 18.4969 11.4915 18.4969 10.2362C18.4966 5.68136 14.791 1.97578 10.2362 1.97578Z" fill="#444444"/>
<path d="M10.2362 14.6857C7.57681 14.6857 5.41333 12.5222 5.41333 9.86277C5.41333 7.20337 7.57681 5.04022 10.2362 5.04022C12.8953 5.04022 15.0591 7.2037 15.0591 9.8631C15.0591 12.5225 12.8953 14.6857 10.2362 14.6857ZM10.2362 7.016C8.66645 7.016 7.38911 8.29302 7.38911 9.8631C7.38911 11.4332 8.66612 12.7102 10.2362 12.7102C11.8063 12.7102 13.0833 11.4332 13.0833 9.8631C13.0833 8.29302 11.8063 7.016 10.2362 7.016Z" fill="#444444"/>
</svg>
