<svg width="20" height="30" viewBox="0 0 20 30" fill="none" xmlns="http://www.w3.org/2000/svg">
<path fill-rule="evenodd" clip-rule="evenodd" d="M0 9.84392C0 4.41611 4.48555 0 9.9996 0C15.5137 0 19.9996 4.41611 20 9.84431C20 11.3403 19.6683 12.7762 19.0138 14.1129L19.0079 14.1238L18.9998 14.1392C17.8581 16.3949 14.2464 22.4063 10.753 28.2195L9.9996 29.4737L9.24257 28.2132C5.75124 22.4027 2.14072 16.3937 1.00379 14.1486C0.337652 12.8025 0 11.354 0 9.84392ZM5.81579 9.47368C5.81579 7.16281 7.68913 5.28947 10 5.28947C12.3109 5.28947 14.1842 7.16281 14.1842 9.47368C14.1842 11.7846 12.3109 13.6579 10 13.6579C7.68913 13.6579 5.81579 11.7846 5.81579 9.47368Z" fill="#FAFAFA"/>
</svg>
