<svg width="154" height="99" viewBox="0 0 154 99" fill="none" xmlns="http://www.w3.org/2000/svg">
<g clip-path="url(#clip0_629_1227)">
<path d="M119.696 25.8674V10.8174H112.736V11.8848H114.7V25.8674H112.181V26.8494H122.215V25.8674H119.696Z" fill="#FAFAFA"/>
<path d="M20.7071 1.10445H19.8105C19.7678 1.87296 19.3622 2.21452 18.5937 2.21452C17.0353 2.21452 14.7938 0.335938 12.1254 0.335938C4.56837 0.335938 0 7.78622 0 14.3399C0 20.8936 4.35489 27.4473 11.6344 27.4473C16.0533 27.4473 17.7184 25.3552 18.8926 25.3552C19.6611 25.3552 19.8105 26.0384 19.8105 26.8709H20.8138V17.8409H19.8105L19.597 19.1004C19.0847 22.0891 16.7578 26.4867 12.0187 26.4867C7.81319 26.4867 6.19078 22.8576 6.19078 13.8916C6.19078 4.4987 8.38958 1.33927 12.1254 1.33927C16.3309 1.33927 19.2128 6.05707 19.8105 9.79289H20.7071V1.10445Z" fill="#FAFAFA"/>
<path d="M33.6223 22.5376C33.5582 24.4589 32.4695 26.0386 30.7617 26.0386C28.2854 26.0386 28.1787 23.9466 28.1787 22.3669C28.1787 20.4456 28.3921 19.1647 30.7617 18.9086L33.6223 18.6097V22.5163V22.5376ZM40.2614 23.7331C40.2614 24.6724 39.6423 25.7611 39.2367 25.7611C38.5749 25.7611 38.4255 25.078 38.4255 23.9466V15.5997C38.4255 11.4583 34.5402 10.4336 30.8044 10.4336C27.0686 10.4336 24.5069 12.2054 24.5069 14.2548C24.5069 15.5357 25.2327 16.6244 26.8765 16.6244C28.2641 16.6244 29.0966 15.7064 29.0966 14.4469C29.0966 12.5897 27.1753 12.5683 27.1753 12.5257C27.1753 11.6931 29.3101 11.4369 30.5482 11.4369C33.2807 11.4369 33.6436 12.4403 33.6436 14.6177V17.6704L30.0786 17.9693C26.7697 18.2254 23.1833 19.1007 23.1833 22.8792C23.1833 26.0386 26.0226 27.3195 28.8191 27.3195C30.228 27.3195 32.747 26.7858 33.6863 25.0353C34.3481 26.551 35.693 27.3195 37.3154 27.3195C39.685 27.3195 41.2007 25.9105 41.2007 23.7544H40.2827L40.2614 23.7331Z" fill="#FAFAFA"/>
<path d="M123.602 88.3303V73.2803H116.088V74.3476H118.585V88.3303H116.088V89.3123H126.1V88.3303H123.602Z" fill="#FAFAFA"/>
<path d="M29.2675 33.9152V32.8905H20.9846L14.9646 50.1179L9.11539 32.8691H0V33.9152H2.45497V54.665C2.45497 56.2233 2.07071 57.4401 0 57.4401V58.4435H6.27617V57.4401H6.16943C4.20546 57.4401 3.43695 57.2907 3.43695 54.3447V33.723H3.50099L12.1894 58.4221H13.1714L21.6464 34.15H21.7104V57.4188H19.2768V58.4221H29.2461V57.4188H26.8765V33.9152H29.2461H29.2675Z" fill="#FAFAFA"/>
<path d="M35.074 48.6669V46.2332C35.074 43.7996 36.12 43.0311 37.3582 43.0311C39.1087 43.0311 39.6424 44.2266 39.6424 46.2332V48.6669H35.074ZM35.074 49.6489H45.1073C45.0646 45.7209 41.4356 41.9424 37.6143 42.0278C33.3235 42.0278 29.6304 45.7423 29.6304 50.6308C29.6304 55.5194 33.0887 58.871 37.7424 58.871C42.3962 58.871 44.4242 56.1172 45.2354 52.5094H44.2534C43.4636 55.8823 41.6917 57.8036 38.8525 57.8036C35.4796 57.8036 35.1167 55.1565 35.1167 52.6802V49.6275L35.074 49.6489Z" fill="#FAFAFA"/>
<path d="M76.8297 79.535V77.1014C76.8297 74.6678 77.8758 73.8993 79.1139 73.8993C80.8644 73.8993 81.3981 75.0947 81.3981 77.1014V79.535H76.8297ZM76.8297 80.517H86.8631C86.8204 76.5891 83.1913 72.8106 79.3701 72.896C75.0792 72.896 71.3861 76.6104 71.3861 81.499C71.3861 86.3876 74.8444 89.7391 79.4982 89.7391C84.1519 89.7391 86.1799 86.9853 86.9912 83.3776H86.0092C85.2193 86.7505 83.4475 88.6718 80.6082 88.6718C77.2353 88.6718 76.8724 86.0247 76.8724 83.5484V80.4957L76.8297 80.517Z" fill="#FAFAFA"/>
<path d="M45.1714 32.9121V33.8301H47.6904V57.3977H45.1714V58.4437H55.2047V57.3977H52.6857V32.9121H45.1714Z" fill="#FAFAFA"/>
<path d="M55.9092 32.9121V33.8301H58.4068V57.3977H55.9092V58.4437H65.9212V57.3977H63.4235V32.9121H55.9092Z" fill="#FAFAFA"/>
<path d="M77.4489 54.0245C77.4489 56.757 76.3174 57.8671 74.4602 57.8671C72.603 57.8671 71.4715 56.7356 71.4715 54.0245V46.8731C71.4715 44.1406 72.603 43.0305 74.4602 43.0305C76.3174 43.0305 77.4489 44.162 77.4489 46.8731V54.0245ZM83.1059 50.4381C83.1059 45.4642 79.2634 42.0059 74.4602 42.0059C69.657 42.0059 65.8145 45.4642 65.8145 50.4381C65.8145 55.4121 69.657 58.8704 74.4602 58.8704C79.2634 58.8704 83.1059 55.4121 83.1059 50.4381Z" fill="#FAFAFA"/>
<path d="M0 64.6774H2.54036V80.8162C2.54036 86.4519 6.4256 89.8675 12.3602 89.8675C19.042 89.8675 21.9453 86.3452 21.9453 81.0083V67.2178C21.9453 65.1044 22.5216 64.6988 23.8452 64.6988H24.571V63.7168H18.1881V64.6988H18.6364C20.4936 64.6988 20.7498 65.2538 20.7498 67.3672V81.3925C20.7498 86.3452 17.6757 88.5867 14.5804 88.5867C9.28617 88.5867 8.2188 85.0216 7.89858 80.3679V64.6988H10.2895V63.7168H0V64.6988V64.6774Z" fill="#FAFAFA"/>
<path d="M62.9539 89.7177H63.9359L69.3154 76.9946C70.4042 74.625 70.9805 74.3262 71.8131 74.2835H72.1333V73.2801H66.4549V74.2835H67.138C68.184 74.2835 68.675 74.2194 68.675 75.1587C68.675 75.7351 68.4829 76.3115 68.0559 77.3575L65.5796 83.164L61.6303 74.2621H63.637V73.2588H54.5216V74.2621H56.2294L62.9112 89.675L62.9539 89.7177Z" fill="#FAFAFA"/>
<path d="M103.429 89.7179H104.283C104.453 89.1415 104.838 88.8427 105.563 88.8427C106.503 88.8427 107.634 89.7179 109.662 89.7179C113.12 89.7179 115.469 86.7293 115.469 83.762C115.469 79.3217 112.416 79.0015 108.531 78.4464C106.503 78.1476 105.35 77.87 105.35 76.269C105.35 74.5612 106.844 73.8354 108.808 73.8354C111.541 73.8354 112.587 75.6499 113.505 77.9981H114.359V72.832H113.526C113.526 73.259 113.142 73.6219 112.459 73.6219C111.285 73.6219 110.345 72.832 108.68 72.832C105.051 72.832 103.258 75.9274 103.258 78.2543C103.258 82.9508 106.823 83.335 109.577 83.6766C112.203 83.9968 113.142 84.1676 113.142 85.8327C113.142 87.7539 111.541 88.6292 109.577 88.6292C106.823 88.6292 104.923 86.2383 104.261 83.5912H103.407V89.6966L103.429 89.7179Z" fill="#FAFAFA"/>
<path d="M53.2194 88.3303V73.2803H45.7051V74.3476H48.2241V88.3303H45.7051V89.3123H55.7384V88.3303H53.2194Z" fill="#FAFAFA"/>
<path d="M48.224 68.2633C48.224 69.6509 49.3341 70.761 50.7217 70.761C52.1092 70.761 53.2193 69.6509 53.2193 68.2633C53.2193 66.8757 52.1092 65.7656 50.7217 65.7656C49.3341 65.7656 48.224 66.8757 48.224 68.2633Z" fill="#FAFAFA"/>
<path d="M118.585 68.2633C118.585 69.6509 119.696 70.761 121.083 70.761C122.471 70.761 123.581 69.6509 123.581 68.2633C123.581 66.8757 122.471 65.7656 121.083 65.7656C119.696 65.7656 118.585 66.8757 118.585 68.2633Z" fill="#FAFAFA"/>
<path d="M83.9599 17.0721V14.6385C83.9599 12.2049 85.0059 11.4364 86.244 11.4364C87.9945 11.4364 88.5282 12.6319 88.5282 14.6385V17.0721H83.9599ZM83.9599 18.0541H93.9932C93.9505 14.1262 90.3214 10.3477 86.5002 10.4331C82.2094 10.4331 78.5162 14.1475 78.5162 19.0361C78.5162 23.9247 81.9745 27.2763 86.6283 27.2763C91.2821 27.2763 93.3101 24.5224 94.1213 20.9147H93.1393C92.3494 24.2876 90.5776 26.2089 87.7384 26.2089C84.3655 26.2089 84.0025 23.5618 84.0025 21.0855V18.0328L83.9599 18.0541Z" fill="#FAFAFA"/>
<path d="M127.829 17.0721V14.6385C127.829 12.2049 128.875 11.4364 130.113 11.4364C131.415 11.4364 132.397 12.1836 132.397 14.6385V17.0721H127.829ZM127.829 18.0541H137.862C137.82 14.1262 134.191 10.3477 130.369 10.4331C126.078 10.4331 122.385 14.1475 122.385 19.0361C122.385 23.9247 125.844 27.2763 130.497 27.2763C135.151 27.2763 137.179 24.5224 137.99 20.9147H137.008C136.219 24.2876 134.447 26.2089 131.608 26.2089C128.235 26.2089 127.872 23.5618 127.872 21.0855V18.0328L127.829 18.0541Z" fill="#FAFAFA"/>
<path d="M42.4816 88.3308V78.5109C42.4816 74.583 40.8164 72.7471 37.3581 72.7471C34.9245 72.7471 32.4482 74.1347 31.4662 76.2481V73.3021H23.9519V74.2841H26.4496V88.3094H23.9519V89.2914H33.6223V88.3094H31.4876V78.7244C31.8078 77.3795 33.5156 74.2628 35.5009 74.2628C36.8245 74.2628 37.4862 74.7111 37.4862 77.166V88.3308H35.4155V89.3128H45.0006V88.3308H42.5029H42.4816Z" fill="#FAFAFA"/>
<path d="M101.636 57.4616V47.6418C101.636 43.7138 99.9705 41.8779 96.5122 41.8779C94.0786 41.8779 91.6023 43.2655 90.6203 45.3789V42.433H83.106V43.415H85.6036V57.4403H83.106V58.4223H92.7764V57.4403H90.6416V47.8552C90.9618 46.5103 92.6696 43.3936 94.655 43.3936C95.9785 43.3936 96.6403 43.8419 96.6403 46.2969V57.4616H94.5696V58.4436H104.155V57.4616H101.657H101.636Z" fill="#FAFAFA"/>
<path d="M75.9758 25.868V16.0695C75.9758 12.1416 74.3107 10.3057 70.8524 10.3057C68.4188 10.3057 65.9425 11.6933 64.9605 13.8067V10.8607H57.4462V11.8427H59.9438V25.868H57.4462V26.85H67.1166V25.868H64.9818V16.283C65.3021 14.9381 67.0099 11.8213 68.9952 11.8213C70.3187 11.8213 70.9805 12.2696 70.9805 14.7246V25.8894H68.9098V26.8713H78.4948V25.8894H75.9972L75.9758 25.868Z" fill="#FAFAFA"/>
<path d="M114.7 5.86485C114.7 7.25244 115.81 8.36251 117.198 8.36251C118.585 8.36251 119.696 7.25244 119.696 5.86485C119.696 4.47726 118.585 3.36719 117.198 3.36719C115.81 3.36719 114.7 4.47726 114.7 5.86485Z" fill="#FAFAFA"/>
<path d="M147.981 73.28V74.326C149.539 74.326 150.201 74.4755 150.201 75.1586C150.201 75.735 150.009 76.3113 149.582 77.3574L147.106 83.1639L143.157 74.3047H145.227V73.2586H132.696V65.4668H132.034C132.034 69.3094 129.409 73.28 125.758 73.28V74.326H127.68V85.5762C127.68 89.0345 130.647 89.7176 131.672 89.7176C133.892 89.7176 135.386 88.821 136.496 86.9211L135.728 86.4941C135.301 87.1559 134.703 88.0098 133.806 88.0098C133.081 88.0098 132.696 87.4974 132.696 86.302V74.326H137.756L144.395 89.6322L142.089 95.0545C142.089 95.0545 141.94 95.2252 141.812 95.2252C141.684 95.2252 141.577 95.1399 141.534 95.0118C141.235 93.9657 140.296 93.1972 139.143 93.1972C137.756 93.1972 136.646 94.3073 136.646 95.6949C136.646 96.6769 137.201 97.5094 138.012 97.915C138.033 97.915 138.054 97.9364 138.097 97.9577C138.14 97.9791 138.204 98.0004 138.247 98.0218C138.524 98.1285 138.823 98.2139 139.165 98.2139C141.278 98.3847 142.345 96.8263 143.092 95.2466C143.263 94.8837 143.413 94.5208 143.562 94.1792C143.882 93.4107 144.437 92.0872 145.099 90.5501L145.74 89.0772L150.842 76.9945C151.93 74.6249 152.357 74.326 153.681 74.326V73.28H148.002H147.981Z" fill="#FAFAFA"/>
<path d="M53.7744 10.2627C51.4476 10.2627 49.6757 11.8638 48.9712 13.6783H48.9072V10.9031H41.4569V11.9278H43.9546V25.9104H41.4569V26.9138H52.3228V25.9104H48.9712V18.0759C48.9712 15.749 49.5903 13.3367 51.1273 12.0345C51.2127 11.9705 51.3408 11.9491 51.4476 12.0132C51.5756 12.0772 51.6183 12.2053 51.6183 12.3121C51.5116 12.5896 51.4475 12.9311 51.4262 13.3581C51.3835 14.6816 52.4722 15.7277 53.9025 15.7277C55.653 15.7277 56.6563 14.4468 56.6563 13.0806C56.6563 11.3301 55.5036 10.284 53.7958 10.284L53.7744 10.2627Z" fill="#FAFAFA"/>
<path d="M108.467 11.4584C108.467 11.4584 108.638 11.3944 108.68 11.4584C108.723 11.5225 108.744 11.5865 108.68 11.6505C108.467 12.0348 108.381 12.4831 108.552 12.9954C108.723 13.5078 109.15 13.8707 109.641 13.9774C110.687 14.2122 111.584 13.4437 111.584 12.4617C111.584 11.8213 111.178 11.3303 110.73 11.0528C110.281 10.7753 109.726 10.6259 109.129 10.6259C108.168 10.6259 107.165 11.1382 106.46 11.7573C106.289 11.6292 106.119 11.5225 105.948 11.4157C104.944 10.8393 103.642 10.4551 101.913 10.4551C98.8604 10.4551 95.5943 12.4617 95.5943 15.7493C95.5943 17.7559 96.683 19.3143 98.6043 20.1896V20.2536C97.1953 20.4244 94.9752 21.4064 94.9752 24.4377C94.9752 26.2522 95.8077 27.6398 97.3448 28.0668V28.1308C95.8931 28.5364 94.228 29.9881 94.228 31.7386C94.228 34.4283 97.3875 36.4991 101.422 36.4991C106.482 36.4991 109.769 33.0835 109.769 28.6432C109.769 25.1208 108.019 23.5198 104.475 23.5838H98.4335C97.5155 23.5838 96.9178 23.5411 96.9178 22.5591C96.9178 21.6625 98.3054 20.6805 99.693 20.6805C99.9278 20.6805 100.333 20.8727 100.44 20.894C100.888 21.0435 101.358 21.1075 101.934 21.1075C105.051 21.1075 108.403 19.3356 108.403 15.8774C108.403 14.81 107.933 13.3583 107.079 12.4404C107.037 12.3764 107.037 12.291 107.079 12.2483C107.421 11.9708 107.826 11.7359 108.019 11.6292C108.168 11.5438 108.296 11.4798 108.445 11.4371L108.467 11.4584ZM103.642 28.1735C107.271 28.1735 108.232 28.323 108.232 30.5431C108.232 33.1902 104.987 35.6238 101.315 35.6238C98.0492 35.6238 96.4695 33.6171 96.4055 31.8666C96.4055 30.2656 97.1953 29.2196 98.1773 28.1522H103.642V28.1735ZM104.261 15.7706C104.261 19.9974 103.279 20.1255 101.977 20.1255C100.526 20.1255 99.757 19.848 99.757 15.6425C99.757 12.6966 100.077 11.4371 101.977 11.4371C103.685 11.4371 104.24 11.5438 104.261 15.7279V15.7706Z" fill="#FAFAFA"/>
<path d="M99.5862 72.6396C97.2593 72.6396 95.4875 74.2407 94.783 76.0553H94.719V73.2801H87.2687V74.3048H89.7663V88.2874H87.2687V89.2907H98.1346V88.2874H94.783V80.4528C94.783 78.126 95.4021 75.735 96.9178 74.4115C97.0031 74.3475 97.1312 74.3261 97.238 74.3901C97.3661 74.4542 97.4088 74.5823 97.4088 74.689C97.302 74.9879 97.238 75.3081 97.2166 75.735C97.1739 77.0586 98.2627 78.1046 99.6929 78.1046C101.443 78.1046 102.447 76.8238 102.447 75.4575C102.447 73.707 101.294 72.661 99.5862 72.661V72.6396Z" fill="#FAFAFA"/>
</g>
<defs>
<clipPath id="clip0_629_1227">
<rect width="153.659" height="97.9211" fill="white" transform="translate(0 0.335938)"/>
</clipPath>
</defs>
</svg>
