<svg width="154" height="99" viewBox="0 0 154 99" fill="none" xmlns="http://www.w3.org/2000/svg">
<g clip-path="url(#clip0_629_1307)">
<path d="M119.696 25.8674V10.8174H112.736V11.8848H114.7V25.8674H112.181V26.8494H122.215V25.8674H119.696Z" fill="#C41230"/>
<path d="M20.7071 1.10445H19.8105C19.7678 1.87296 19.3622 2.21452 18.5937 2.21452C17.0353 2.21452 14.7938 0.335938 12.1254 0.335938C4.56837 0.335938 0 7.78622 0 14.3399C0 20.8936 4.35489 27.4473 11.6344 27.4473C16.0533 27.4473 17.7184 25.3552 18.8926 25.3552C19.6611 25.3552 19.8105 26.0384 19.8105 26.8709H20.8138V17.8409H19.8105L19.597 19.1004C19.0847 22.0891 16.7578 26.4867 12.0187 26.4867C7.81319 26.4867 6.19078 22.8576 6.19078 13.8916C6.19078 4.4987 8.38958 1.33927 12.1254 1.33927C16.3309 1.33927 19.2128 6.05707 19.8105 9.79289H20.7071V1.10445Z" fill="#C41230"/>
<path d="M33.6223 22.5372C33.5582 24.4584 32.4695 26.0381 30.7617 26.0381C28.2854 26.0381 28.1787 23.9461 28.1787 22.3664C28.1787 20.4451 28.3921 19.1642 30.7617 18.9081L33.6223 18.6092V22.5158V22.5372ZM40.2614 23.7326C40.2614 24.6719 39.6423 25.7606 39.2367 25.7606C38.5749 25.7606 38.4255 25.0775 38.4255 23.9461V15.5992C38.4255 11.4578 34.5402 10.4331 30.8044 10.4331C27.0686 10.4331 24.5069 12.2049 24.5069 14.2543C24.5069 15.5352 25.2327 16.6239 26.8765 16.6239C28.2641 16.6239 29.0966 15.7059 29.0966 14.4464C29.0966 12.5892 27.1753 12.5679 27.1753 12.5252C27.1753 11.6926 29.3101 11.4364 30.5482 11.4364C33.2807 11.4364 33.6436 12.4398 33.6436 14.6172V17.6699L30.0786 17.9688C26.7697 18.225 23.1833 19.1002 23.1833 22.8787C23.1833 26.0381 26.0226 27.319 28.8191 27.319C30.228 27.319 32.747 26.7853 33.6863 25.0348C34.3481 26.5505 35.693 27.319 37.3154 27.319C39.685 27.319 41.2007 25.9101 41.2007 23.754H40.2827L40.2614 23.7326Z" fill="#C41230"/>
<path d="M123.602 88.3303V73.2803H116.088V74.3476H118.585V88.3303H116.088V89.3123H126.1V88.3303H123.602Z" fill="#C41230"/>
<path d="M29.2675 33.9157V32.891H20.9846L14.9646 50.1184L9.11539 32.8696H0V33.9157H2.45497V54.6655C2.45497 56.2238 2.07071 57.4406 0 57.4406V58.444H6.27617V57.4406H6.16943C4.20546 57.4406 3.43695 57.2912 3.43695 54.3452V33.7235H3.50099L12.1894 58.4226H13.1714L21.6464 34.1505H21.7104V57.4193H19.2768V58.4226H29.2461V57.4193H26.8765V33.9157H29.2461H29.2675Z" fill="#C41230"/>
<path d="M35.074 48.6669V46.2332C35.074 43.7996 36.12 43.0311 37.3582 43.0311C39.1087 43.0311 39.6424 44.2266 39.6424 46.2332V48.6669H35.074ZM35.074 49.6489H45.1073C45.0646 45.7209 41.4356 41.9424 37.6143 42.0278C33.3235 42.0278 29.6304 45.7423 29.6304 50.6308C29.6304 55.5194 33.0887 58.871 37.7424 58.871C42.3962 58.871 44.4242 56.1172 45.2354 52.5094H44.2534C43.4636 55.8823 41.6917 57.8036 38.8525 57.8036C35.4796 57.8036 35.1167 55.1565 35.1167 52.6802V49.6275L35.074 49.6489Z" fill="#C41230"/>
<path d="M76.8297 79.535V77.1014C76.8297 74.6678 77.8758 73.8993 79.1139 73.8993C80.8644 73.8993 81.3981 75.0947 81.3981 77.1014V79.535H76.8297ZM76.8297 80.517H86.8631C86.8204 76.5891 83.1913 72.8106 79.3701 72.896C75.0792 72.896 71.3861 76.6104 71.3861 81.499C71.3861 86.3876 74.8444 89.7391 79.4982 89.7391C84.1519 89.7391 86.1799 86.9853 86.9912 83.3776H86.0092C85.2193 86.7505 83.4475 88.6718 80.6082 88.6718C77.2353 88.6718 76.8724 86.0247 76.8724 83.5484V80.4957L76.8297 80.517Z" fill="#C41230"/>
<path d="M45.1714 32.9121V33.8301H47.6904V57.3977H45.1714V58.4437H55.2047V57.3977H52.6857V32.9121H45.1714Z" fill="#C41230"/>
<path d="M55.9092 32.9121V33.8301H58.4068V57.3977H55.9092V58.4437H65.9212V57.3977H63.4235V32.9121H55.9092Z" fill="#C41230"/>
<path d="M77.4489 54.025C77.4489 56.7575 76.3174 57.8676 74.4602 57.8676C72.603 57.8676 71.4715 56.7361 71.4715 54.025V46.8736C71.4715 44.1411 72.603 43.031 74.4602 43.031C76.3174 43.031 77.4489 44.1624 77.4489 46.8736V54.025ZM83.1059 50.4386C83.1059 45.4646 79.2634 42.0063 74.4602 42.0063C69.657 42.0063 65.8145 45.4646 65.8145 50.4386C65.8145 55.4126 69.657 58.8709 74.4602 58.8709C79.2634 58.8709 83.1059 55.4126 83.1059 50.4386Z" fill="#C41230"/>
<path d="M0 64.6774H2.54036V80.8162C2.54036 86.4519 6.4256 89.8675 12.3602 89.8675C19.042 89.8675 21.9453 86.3452 21.9453 81.0083V67.2178C21.9453 65.1044 22.5216 64.6988 23.8452 64.6988H24.571V63.7168H18.1881V64.6988H18.6364C20.4936 64.6988 20.7498 65.2538 20.7498 67.3672V81.3925C20.7498 86.3452 17.6757 88.5867 14.5804 88.5867C9.28617 88.5867 8.2188 85.0216 7.89858 80.3679V64.6988H10.2895V63.7168H0V64.6988V64.6774Z" fill="#C41230"/>
<path d="M62.9539 89.7182H63.9359L69.3154 76.9951C70.4042 74.6255 70.9805 74.3267 71.8131 74.284H72.1333V73.2806H66.4549V74.284H67.138C68.184 74.284 68.675 74.2199 68.675 75.1592C68.675 75.7356 68.4829 76.312 68.0559 77.358L65.5796 83.1645L61.6303 74.2626H63.637V73.2593H54.5216V74.2626H56.2294L62.9112 89.6755L62.9539 89.7182Z" fill="#C41230"/>
<path d="M103.429 89.7179H104.283C104.453 89.1415 104.838 88.8427 105.563 88.8427C106.503 88.8427 107.634 89.7179 109.662 89.7179C113.12 89.7179 115.469 86.7293 115.469 83.762C115.469 79.3217 112.416 79.0015 108.531 78.4464C106.503 78.1476 105.35 77.87 105.35 76.269C105.35 74.5612 106.844 73.8354 108.808 73.8354C111.541 73.8354 112.587 75.6499 113.505 77.9981H114.359V72.832H113.526C113.526 73.259 113.142 73.6219 112.459 73.6219C111.285 73.6219 110.345 72.832 108.68 72.832C105.051 72.832 103.258 75.9274 103.258 78.2543C103.258 82.9508 106.823 83.335 109.577 83.6766C112.203 83.9968 113.142 84.1676 113.142 85.8327C113.142 87.7539 111.541 88.6292 109.577 88.6292C106.823 88.6292 104.923 86.2383 104.261 83.5912H103.407V89.6966L103.429 89.7179Z" fill="#C41230"/>
<path d="M53.2194 88.3303V73.2803H45.7051V74.3476H48.2241V88.3303H45.7051V89.3123H55.7384V88.3303H53.2194Z" fill="#C41230"/>
<path d="M48.224 68.2638C48.224 69.6514 49.3341 70.7614 50.7217 70.7614C52.1092 70.7614 53.2193 69.6514 53.2193 68.2638C53.2193 66.8762 52.1092 65.7661 50.7217 65.7661C49.3341 65.7661 48.224 66.8762 48.224 68.2638Z" fill="#C41230"/>
<path d="M118.585 68.2638C118.585 69.6514 119.696 70.7614 121.083 70.7614C122.471 70.7614 123.581 69.6514 123.581 68.2638C123.581 66.8762 122.471 65.7661 121.083 65.7661C119.696 65.7661 118.585 66.8762 118.585 68.2638Z" fill="#C41230"/>
<path d="M83.9599 17.0726V14.639C83.9599 12.2054 85.0059 11.4369 86.244 11.4369C87.9945 11.4369 88.5282 12.6323 88.5282 14.639V17.0726H83.9599ZM83.9599 18.0546H93.9932C93.9505 14.1267 90.3214 10.3482 86.5002 10.4335C82.2094 10.4335 78.5162 14.148 78.5162 19.0366C78.5162 23.9252 81.9745 27.2767 86.6283 27.2767C91.2821 27.2767 93.3101 24.5229 94.1213 20.9152H93.1393C92.3494 24.2881 90.5776 26.2094 87.7384 26.2094C84.3655 26.2094 84.0025 23.5623 84.0025 21.086V18.0333L83.9599 18.0546Z" fill="#C41230"/>
<path d="M127.829 17.0726V14.639C127.829 12.2054 128.875 11.4369 130.113 11.4369C131.415 11.4369 132.397 12.184 132.397 14.639V17.0726H127.829ZM127.829 18.0546H137.862C137.82 14.1267 134.191 10.3482 130.369 10.4335C126.078 10.4335 122.385 14.148 122.385 19.0366C122.385 23.9252 125.844 27.2767 130.497 27.2767C135.151 27.2767 137.179 24.5229 137.99 20.9152H137.008C136.219 24.2881 134.447 26.2094 131.608 26.2094C128.235 26.2094 127.872 23.5623 127.872 21.086V18.0333L127.829 18.0546Z" fill="#C41230"/>
<path d="M42.4816 88.3303V78.5104C42.4816 74.5825 40.8164 72.7466 37.3581 72.7466C34.9245 72.7466 32.4482 74.1342 31.4662 76.2476V73.3016H23.9519V74.2836H26.4496V88.3089H23.9519V89.2909H33.6223V88.3089H31.4876V78.7239C31.8078 77.379 33.5156 74.2623 35.5009 74.2623C36.8245 74.2623 37.4862 74.7106 37.4862 77.1655V88.3303H35.4155V89.3123H45.0006V88.3303H42.5029H42.4816Z" fill="#C41230"/>
<path d="M101.636 57.4621V47.6423C101.636 43.7143 99.9705 41.8784 96.5122 41.8784C94.0786 41.8784 91.6023 43.266 90.6203 45.3794V42.4335H83.106V43.4154H85.6036V57.4408H83.106V58.4227H92.7764V57.4408H90.6416V47.8557C90.9618 46.5108 92.6696 43.3941 94.655 43.3941C95.9785 43.3941 96.6403 43.8424 96.6403 46.2974V57.4621H94.5696V58.4441H104.155V57.4621H101.657H101.636Z" fill="#C41230"/>
<path d="M75.9758 25.8675V16.069C75.9758 12.1411 74.3107 10.3052 70.8524 10.3052C68.4188 10.3052 65.9425 11.6928 64.9605 13.8062V10.8602H57.4462V11.8422H59.9438V25.8675H57.4462V26.8495H67.1166V25.8675H64.9818V16.2825C65.3021 14.9376 67.0099 11.8208 68.9952 11.8208C70.3187 11.8208 70.9805 12.2691 70.9805 14.7241V25.8889H68.9098V26.8709H78.4948V25.8889H75.9972L75.9758 25.8675Z" fill="#C41230"/>
<path d="M114.7 5.86485C114.7 7.25244 115.81 8.36251 117.198 8.36251C118.585 8.36251 119.696 7.25244 119.696 5.86485C119.696 4.47726 118.585 3.36719 117.198 3.36719C115.81 3.36719 114.7 4.47726 114.7 5.86485Z" fill="#C41230"/>
<path d="M147.981 73.2805V74.3265C149.539 74.3265 150.201 74.4759 150.201 75.1591C150.201 75.7354 150.009 76.3118 149.582 77.3579L147.106 83.1644L143.157 74.3052H145.227V73.2591H132.696V65.4673H132.034C132.034 69.3098 129.409 73.2805 125.758 73.2805V74.3265H127.68V85.5767C127.68 89.035 130.647 89.7181 131.672 89.7181C133.892 89.7181 135.386 88.8215 136.496 86.9216L135.728 86.4946C135.301 87.1564 134.703 88.0103 133.806 88.0103C133.081 88.0103 132.696 87.4979 132.696 86.3025V74.3265H137.756L144.395 89.6327L142.089 95.055C142.089 95.055 141.94 95.2257 141.812 95.2257C141.684 95.2257 141.577 95.1403 141.534 95.0123C141.235 93.9662 140.296 93.1977 139.143 93.1977C137.756 93.1977 136.646 94.3078 136.646 95.6954C136.646 96.6774 137.201 97.5099 138.012 97.9155C138.033 97.9155 138.054 97.9369 138.097 97.9582C138.14 97.9796 138.204 98.0009 138.247 98.0223C138.524 98.129 138.823 98.2144 139.165 98.2144C141.278 98.3852 142.345 96.8268 143.092 95.2471C143.263 94.8842 143.413 94.5213 143.562 94.1797C143.882 93.4112 144.437 92.0876 145.099 90.5506L145.74 89.0776L150.842 76.9949C151.93 74.6254 152.357 74.3265 153.681 74.3265V73.2805H148.002H147.981Z" fill="#C41230"/>
<path d="M53.7744 10.2627C51.4476 10.2627 49.6757 11.8638 48.9712 13.6783H48.9072V10.9031H41.4569V11.9278H43.9546V25.9104H41.4569V26.9138H52.3228V25.9104H48.9712V18.0759C48.9712 15.749 49.5903 13.3367 51.1273 12.0345C51.2127 11.9705 51.3408 11.9491 51.4476 12.0132C51.5756 12.0772 51.6183 12.2053 51.6183 12.3121C51.5116 12.5896 51.4475 12.9311 51.4262 13.3581C51.3835 14.6816 52.4722 15.7277 53.9025 15.7277C55.653 15.7277 56.6563 14.4468 56.6563 13.0806C56.6563 11.3301 55.5036 10.284 53.7958 10.284L53.7744 10.2627Z" fill="#C41230"/>
<path d="M108.467 11.4579C108.467 11.4579 108.638 11.3939 108.68 11.4579C108.723 11.522 108.744 11.586 108.68 11.6501C108.467 12.0343 108.381 12.4826 108.552 12.9949C108.723 13.5073 109.15 13.8702 109.641 13.9769C110.687 14.2118 111.584 13.4432 111.584 12.4613C111.584 11.8208 111.178 11.3298 110.73 11.0523C110.281 10.7748 109.726 10.6254 109.129 10.6254C108.168 10.6254 107.165 11.1377 106.46 11.7568C106.289 11.6287 106.119 11.522 105.948 11.4152C104.944 10.8388 103.642 10.4546 101.913 10.4546C98.8604 10.4546 95.5943 12.4613 95.5943 15.7488C95.5943 17.7554 96.683 19.3138 98.6043 20.1891V20.2531C97.1953 20.4239 94.9752 21.4059 94.9752 24.4372C94.9752 26.2518 95.8077 27.6393 97.3448 28.0663V28.1303C95.8931 28.5359 94.228 29.9876 94.228 31.7381C94.228 34.4279 97.3875 36.4986 101.422 36.4986C106.482 36.4986 109.769 33.083 109.769 28.6427C109.769 25.1203 108.019 23.5193 104.475 23.5833H98.4335C97.5155 23.5833 96.9178 23.5406 96.9178 22.5586C96.9178 21.662 98.3054 20.6801 99.693 20.6801C99.9278 20.6801 100.333 20.8722 100.44 20.8935C100.888 21.043 101.358 21.107 101.934 21.107C105.051 21.107 108.403 19.3352 108.403 15.8769C108.403 14.8095 107.933 13.3579 107.079 12.4399C107.037 12.3759 107.037 12.2905 107.079 12.2478C107.421 11.9703 107.826 11.7354 108.019 11.6287C108.168 11.5433 108.296 11.4793 108.445 11.4366L108.467 11.4579ZM103.642 28.173C107.271 28.173 108.232 28.3225 108.232 30.5426C108.232 33.1897 104.987 35.6233 101.315 35.6233C98.0492 35.6233 96.4695 33.6167 96.4055 31.8662C96.4055 30.2651 97.1953 29.2191 98.1773 28.1517H103.642V28.173ZM104.261 15.7701C104.261 19.9969 103.279 20.125 101.977 20.125C100.526 20.125 99.757 19.8475 99.757 15.642C99.757 12.6961 100.077 11.4366 101.977 11.4366C103.685 11.4366 104.24 11.5433 104.261 15.7274V15.7701Z" fill="#C41230"/>
<path d="M99.5862 72.6401C97.2593 72.6401 95.4875 74.2412 94.783 76.0557H94.719V73.2806H87.2687V74.3052H89.7663V88.2879H87.2687V89.2912H98.1346V88.2879H94.783V80.4533C94.783 78.1265 95.4021 75.7355 96.9178 74.412C97.0031 74.3479 97.1312 74.3266 97.238 74.3906C97.3661 74.4547 97.4088 74.5828 97.4088 74.6895C97.302 74.9884 97.238 75.3086 97.2166 75.7355C97.1739 77.0591 98.2627 78.1051 99.6929 78.1051C101.443 78.1051 102.447 76.8243 102.447 75.458C102.447 73.7075 101.294 72.6615 99.5862 72.6615V72.6401Z" fill="#C41230"/>
</g>
<defs>
<clipPath id="clip0_629_1307">
<rect width="153.659" height="97.9211" fill="white" transform="translate(0 0.335938)"/>
</clipPath>
</defs>
</svg>
