<svg width="123" height="94" viewBox="0 0 123 94" fill="none" xmlns="http://www.w3.org/2000/svg">
<mask id="mask0_637_1868" style="mask-type:alpha" maskUnits="userSpaceOnUse" x="0" y="0" width="123" height="95">
<path d="M11.8122 36.1011C9.4958 33.0879 7.28052 30.1583 5.01716 27.2664C4.68906 26.8471 4.49107 25.9565 3.75384 26.2525C3.09207 26.5182 3.39493 27.3205 3.39136 27.8816C3.31877 39.2725 3.24869 50.6634 3.23622 62.0545C3.23479 63.3581 2.91341 63.9072 1.51913 63.8648C0.31379 63.8282 -0.00678581 63.3814 0.00010821 62.2316C0.0745635 49.8159 0.105004 37.3999 0.148155 24.9839C0.149617 24.5621 0.104844 24.1313 0.174257 23.7203C0.331502 22.7894 -0.457458 21.5712 0.809674 20.9776C2.12849 20.3597 4.4146 21.0709 5.32019 22.2576C10.0697 28.4813 14.8166 34.707 19.5622 40.9338C20.9759 42.7886 21.0239 42.7848 22.4742 40.9145C27.2711 34.7287 32.0723 28.5462 36.8763 22.366C37.7053 21.2995 40.2595 20.6793 41.4301 21.2259C42.257 21.612 41.979 22.3563 41.9768 22.9699C41.9456 31.5888 41.9074 40.2076 41.842 48.8262C41.7409 62.1455 41.6479 75.465 41.467 88.7833C41.4432 90.5356 41.9356 91.0035 43.6865 90.9865C51.7618 90.9078 59.8387 90.9941 67.915 90.9857C69.0804 90.9845 69.9288 91.0592 69.8058 92.5966C69.7322 93.5153 69.4484 93.868 68.5154 93.8701C58.8721 93.8917 49.2288 93.9259 39.5859 94.0002C38.1917 94.011 38.2578 93.2045 38.2635 92.2341C38.3669 74.8763 38.4537 57.5184 38.5447 40.1606C38.5665 36.0021 38.5979 31.8436 38.6022 27.685C38.6026 27.2384 38.8932 26.5915 38.3521 26.3781C37.6916 26.1175 37.4808 26.8694 37.1855 27.2504C32.2426 33.6264 27.3228 40.0203 22.396 46.4088C21.1194 48.0641 20.9593 48.084 19.6641 46.4014C17.0569 43.0141 14.4846 39.6 11.8122 36.1011Z" fill="#211818"/>
<path d="M114.699 37.5836C114.322 38.4798 113.526 38.1588 112.856 38.1594C105.624 38.166 98.3917 38.1877 91.161 38.0918C89.5438 38.0704 88.8978 38.4293 88.9745 40.1763C89.1435 44.0248 88.4545 43.4804 92.3546 43.5154C95.1868 43.5408 98.0194 43.5271 100.852 43.5149C101.846 43.5107 102.822 43.7228 102.777 44.884C102.737 45.937 101.752 46.0613 100.859 46.061C91.4581 46.0582 82.0568 46.0574 72.6555 46.0555C71.7727 46.0554 70.8126 45.9916 70.7613 44.8714C70.7043 43.6258 71.6985 43.5099 72.6598 43.5101C75.7333 43.5106 78.8075 43.4769 81.88 43.5356C83.0429 43.5579 83.4828 43.1709 83.4674 41.9809C83.4076 37.3334 84.1195 38.1395 79.7686 38.1082C72.8987 38.0587 66.0283 38.0893 59.1581 38.0747C57.0179 38.0702 56.754 37.8077 56.7554 35.6887C56.7628 24.5399 56.7939 13.3911 56.7767 2.24232C56.7742 0.621397 57.4115 -0.00619539 59.0435 4.60524e-05C77.1828 0.0694218 95.3222 0.10488 113.462 0.121615C115.031 0.123062 115.588 0.81779 115.582 2.32462C115.534 13.5337 115.523 24.7429 115.499 35.9521C115.498 36.549 115.598 37.1727 114.947 37.6662C113.819 36.2798 114.138 34.6247 114.28 33.142C114.764 28.0881 114.475 23.0343 114.541 17.9824C114.601 13.3473 114.565 8.71083 114.549 4.07501C114.54 1.4668 114.414 1.33878 111.778 1.33741C95.5225 1.32895 79.2669 1.33391 63.0113 1.33308C62.1082 1.33304 61.2052 1.33077 60.3021 1.31862C58.013 1.28782 57.8628 1.40325 57.8568 3.75644C57.8332 13.0883 57.8466 22.4203 57.8504 31.7522C57.8509 32.8361 57.8159 33.9183 57.7885 35.1696C57.814 36.959 58.9146 37.0796 60.1537 37.0792C66.8375 37.0771 73.5213 37.0749 80.2051 37.0784C80.8674 37.0787 81.5312 37.054 82.1913 37.1128C83.8762 37.2631 84.3979 37.7895 84.5618 39.4732C84.9897 43.8682 84.2245 44.7093 79.8334 44.7271C77.6064 44.7361 75.3786 44.6632 73.1526 44.7772C73.1203 44.7788 73.0922 44.8628 72.9849 45.0254C82.1334 45.0454 91.2049 45.0356 100.28 44.8815C97.8993 44.7157 95.5144 44.7282 93.13 44.7231C92.2871 44.7213 91.4438 44.7403 90.6015 44.6938C90.0577 44.6638 89.5194 44.598 89.0355 44.3202C87.868 43.6499 87.408 41.2896 87.9272 38.9672C88.2577 37.4896 89.2822 37.1024 90.6049 37.0948C96.3251 37.0616 102.045 37.0767 107.93 37.1007C108.64 37.1388 109.188 37.1418 109.899 37.1315C111.259 37.0819 112.456 37.0898 113.815 37.1742C114.196 37.2519 114.394 37.3436 114.699 37.5836Z" fill="#444040"/>
<path d="M113.724 62.8686C113.532 63.8313 114.253 64.9374 112.988 65.3676C111.531 65.8634 110.717 65.2548 110.713 63.6837C110.705 60.5501 110.709 57.4165 110.724 54.2829C110.731 52.7616 111.991 52.001 113.187 52.9761C113.908 53.5645 114.225 53.3626 114.845 53.06C118.556 51.2486 121.897 53.2337 122.036 57.3506C122.111 59.5778 122.008 61.8109 122.077 64.0386C122.114 65.2371 121.527 65.4001 120.521 65.4179C119.422 65.4373 119.01 65.0655 119.045 63.9547C119.108 61.968 119.1 59.9771 119.055 57.9895C119.01 55.9932 118.216 55.0626 116.645 55.0189C114.951 54.9718 113.83 56.0829 113.752 58.0024C113.689 59.5669 113.729 61.1355 113.724 62.8686Z" fill="#221D1E"/>
<path d="M48.798 64.2029C46.3817 61.6931 45.8537 58.6847 47.2505 55.8389C48.3813 53.535 50.8442 52.1812 53.5104 52.4548C55.4787 52.6568 57.0845 53.5323 58.0694 55.2949C58.3845 55.8587 59.2001 56.6311 58.3522 57.1726C57.638 57.6288 56.6241 57.5879 55.793 57.0583C55.6975 56.9974 55.6475 56.8689 55.567 56.7803C53.8151 54.8538 52.1471 54.5676 50.644 55.9338C49.148 57.2936 49.0984 60.6005 50.5524 62.037C51.9344 63.4024 54.0016 63.2739 55.3018 61.6917C55.6843 61.2263 55.9229 60.6012 56.6593 60.6995C57.283 60.7828 58.0664 60.3311 58.5054 61.0189C58.9381 61.6968 58.3615 62.2868 58.0397 62.8284C56.1943 65.934 52.3833 66.5308 48.798 64.2029Z" fill="#221C1C"/>
<path d="M72.1706 62.8008C72.684 65.2646 72.5802 65.3916 70.2637 65.3925C67.7936 65.3934 65.3228 65.3671 62.8537 65.4179C61.7536 65.4406 61.3806 65.0189 61.3904 63.9247C61.4339 59.1053 61.4489 54.2848 61.3892 49.4658C61.3727 48.1359 62.0374 48.058 63.073 48.0262C64.244 47.9902 64.4956 48.5074 64.4841 49.5488C64.4435 53.2234 64.555 56.9017 64.4314 60.5726C64.3755 62.2329 64.9832 62.6074 66.5059 62.5694C68.3571 62.5231 70.2291 62.3021 72.1706 62.8008Z" fill="#221D1E"/>
<path d="M102.12 57.552C102.117 56.3514 102.097 55.329 102.118 54.3074C102.149 52.8177 103.379 51.9293 104.415 52.8712C105.549 53.9016 106.195 53.0789 107.046 52.814C108.688 52.3029 109.242 52.7303 109.091 54.3364C109.02 55.0884 108.657 55.2986 107.956 55.4331C105.854 55.8366 105.233 56.5972 105.171 58.7334C105.126 60.2953 105.141 61.8596 105.161 63.4225C105.174 64.487 105.282 65.4263 103.67 65.4498C101.928 65.4751 102.096 64.4409 102.112 63.3217C102.138 61.4583 102.121 59.5943 102.12 57.552Z" fill="#251F1F"/>
<path d="M99.1521 64.4208C98.9683 64.1615 98.8915 63.8777 98.8705 63.4541C99.6687 63.4807 99.7043 63.8647 99.1521 64.4208Z" fill="#D7D4D4"/>
<path d="M108.361 37.5223C102.42 37.604 96.5759 37.6707 90.734 37.5799C89.005 37.553 88.3529 38.0743 88.3886 39.8213C88.4826 44.4107 87.9451 44.15 92.6722 44.1288C95.2025 44.1175 97.7336 44.0925 100.263 44.1513C100.881 44.1657 102.007 43.6885 102.007 44.7665C102.007 45.8735 100.862 45.557 100.145 45.5612C95.9281 45.5855 91.7109 45.5718 87.4938 45.5712C82.8549 45.5705 78.2161 45.5702 73.5772 45.5692C73.1556 45.5691 72.7316 45.5915 72.313 45.5552C71.8042 45.5111 71.2763 45.3039 71.2829 44.7458C71.2906 44.0906 71.9171 44.1276 72.3823 44.1259C75.515 44.1147 78.649 44.0694 81.7799 44.1448C83.3928 44.1837 84.0695 43.6138 84.044 41.9455C83.9674 36.9172 84.6299 37.6408 79.7495 37.6164C72.8817 37.5822 66.0135 37.5772 59.1459 37.6237C57.7704 37.633 57.056 37.2552 57.2954 35.6283C57.7223 34.2694 58.4739 34.0001 59.7872 34.0967C63.1189 34.3416 66.472 34.4526 69.9766 33.9848C70.6177 33.8463 71.0985 33.8128 71.5795 33.8126C85.2306 33.8075 98.8817 33.7483 112.712 33.8607C114.539 34.429 114.63 34.6558 114.153 37.4514C112.835 37.6057 111.621 37.6123 110.242 37.608C109.571 37.1891 109.025 37.21 108.361 37.5223Z" fill="#150B0C"/>
<path d="M114.179 37.6113C113.668 36.5545 114.918 35.0774 113.045 34.3722C112.234 33.5181 112.395 32.5213 112.393 31.5728C112.378 23.0164 112.39 14.46 112.382 5.90359C112.379 3.20418 112.32 3.14379 109.68 3.14299C94.0732 3.13829 78.4668 3.13737 62.8604 3.14355C60.0842 3.14465 59.9555 3.21551 60.0297 5.96853C60.2508 14.1641 59.5696 22.3436 59.6531 30.5356C59.6819 33.3661 59.7373 33.4286 62.6272 33.4423C64.3143 33.4503 66.0018 33.4214 67.6885 33.4568C68.4625 33.4731 69.2742 33.4114 69.9046 34.2213C69.3214 35.0145 68.5474 34.7605 67.863 34.7332C64.9242 34.616 61.9572 35.1299 59.0494 34.4306C58.084 34.1984 58.0882 35.1503 57.4313 35.4481C57.3006 24.4583 57.3064 13.4399 57.2774 2.42152C57.2734 0.926078 57.7674 0.278787 59.3377 0.669889C59.9054 0.811282 60.5362 0.701942 61.1383 0.702222C78.359 0.710245 95.5799 0.744902 112.8 0.685764C114.655 0.679394 115.14 1.24061 115.121 3.04931C115.028 11.9599 115.087 20.8719 115.049 29.7832C115.039 32.3058 114.882 34.8278 114.806 37.5221C114.82 37.6941 114.782 37.6485 114.803 37.6696C114.652 37.6681 114.48 37.6456 114.179 37.6113Z" fill="#161112"/>
<path d="M108.414 37.6128C108.721 36.614 109.326 36.6756 110.047 37.4739C109.573 37.6076 109.069 37.6177 108.414 37.6128Z" fill="#161112"/>
<path fill-rule="evenodd" clip-rule="evenodd" d="M94.635 76.2648C94.6443 75.4966 94.4463 74.9482 93.3778 75.0401C91.9444 74.8519 91.5872 75.4449 91.6007 76.6824C91.6378 80.0713 91.6341 83.4606 91.6304 86.8499C91.6286 88.5098 91.6268 90.1698 91.6298 91.8297C91.63 91.9199 91.6253 92.0151 91.6206 92.1118C91.5952 92.6293 91.5675 93.1927 92.2649 93.2978C92.3659 93.3131 92.4727 93.3334 92.5826 93.3543C93.1981 93.4715 93.9112 93.6073 94.2537 92.9678C94.7015 92.1319 95.0643 92.3731 95.4974 92.6611C95.5878 92.7212 95.6814 92.7834 95.7794 92.8382C98.1779 94.1803 101.173 93.7133 102.859 91.7673C104.966 89.3362 105.077 85.1142 103.103 82.5354C101.508 80.4526 98.5082 79.7027 96.1308 81.044C94.639 81.8856 94.573 81.2739 94.6158 80.0513C94.6424 79.2911 94.6384 78.5299 94.6343 77.7686C94.6316 77.2673 94.6289 76.7659 94.635 76.2648ZM95.2471 89.5281C96.2189 90.9621 97.5898 91.2821 99.8313 90.4928C101.562 89.1202 101.844 87.4183 101.335 85.5532C100.98 84.2551 100.109 83.3546 98.7438 83.0887C97.4841 82.8433 96.3717 83.1722 95.5039 84.162C94.2926 85.5435 94.1803 87.9541 95.2471 89.5281Z" fill="#211B1A"/>
<path fill-rule="evenodd" clip-rule="evenodd" d="M86.6809 81.3191C83.7418 79.2008 78.9697 80.5428 77.556 83.9907C78.6263 85.1805 79.7104 85.1081 80.6468 83.9622C81.6593 82.7231 82.9157 82.7471 84.248 83.1173C84.9261 83.3057 85.4388 83.8074 85.4457 84.5448C85.4523 85.2616 84.9214 85.317 84.4261 85.3687C84.3179 85.38 84.2114 85.3911 84.1126 85.4089C83.7288 85.478 83.3422 85.5361 82.9557 85.5942C81.734 85.7778 80.5122 85.9615 79.3756 86.492C77.7162 87.2666 76.888 88.7319 77.1706 90.4347C77.4612 92.1859 78.5713 93.1995 80.2851 93.4955C81.7952 93.7563 83.3015 93.703 84.6349 92.8147C85.2655 92.3946 85.6625 92.2231 86.2049 93.0345C86.569 93.5792 87.2327 93.4594 87.8429 93.3492C87.9769 93.325 88.1084 93.3013 88.2335 93.2852C88.6607 93.2301 88.7574 92.8389 88.7026 92.4443C88.4895 90.9071 88.5125 89.3642 88.5354 87.8213C88.5509 86.7767 88.5665 85.732 88.5087 84.6892C88.4307 83.2793 87.8293 82.1468 86.6809 81.3191ZM81.1742 91.1473C83.1098 91.792 84.867 90.8098 85.587 88.5362C85.6188 88.0714 85.5687 87.6391 85.2795 87.6308C83.6123 87.5834 81.9037 87.6362 80.5118 88.6588C79.5329 89.3779 79.959 90.7425 81.1742 91.1473Z" fill="#241E1D"/>
<path fill-rule="evenodd" clip-rule="evenodd" d="M91.2584 55.7377C91.2963 55.7152 91.3392 55.6897 91.3788 55.656C92.7693 54.8238 94.0344 54.9759 95.2626 55.7145C95.259 55.7174 95.2573 55.7183 95.2574 55.7188C95.2579 55.7208 95.2873 55.7162 95.3367 55.8043C95.6799 56.5936 95.601 57.1082 94.7433 57.1651C94.2215 57.1998 93.7255 57.3408 93.1992 57.4905C92.8788 57.5817 92.5472 57.676 92.1917 57.7514C91.8338 57.8268 91.5772 57.8501 91.2328 57.8813C91.1995 57.8843 91.1654 57.8874 91.1304 57.8906C90.9405 57.9501 90.7515 57.9996 90.5658 58.0482C89.845 58.2368 89.1743 58.4123 88.7023 59.1078C88.4511 59.3754 88.2437 59.5498 87.9546 59.7913C87.7279 60.0216 87.649 60.2133 87.6213 60.5516C87.5711 60.7572 87.5236 60.8926 87.4592 61.0762C87.4386 61.1351 87.4162 61.1989 87.3914 61.2716C87.2071 62.3896 87.3464 63.2842 88.042 64.0033C88.0583 63.967 88.1367 63.9791 88.2017 64.0926C88.9652 65.1265 90.0102 65.3339 91.1645 65.563C91.2497 65.5799 91.3354 65.5969 91.4217 65.6144C92.0715 65.5953 92.5713 65.5624 93.1976 65.5179C93.8361 65.5028 94.2783 65.2393 94.7469 64.9602C94.8339 64.9084 94.9218 64.856 95.0121 64.8046C95.0451 64.7894 95.0888 64.7578 95.1361 64.7235C95.1837 64.689 95.235 64.6518 95.2826 64.6263C95.7515 64.3694 96.0606 64.4759 96.3955 64.8983C96.4821 64.9381 96.5687 64.9792 96.6551 65.0203C97.6167 65.4775 98.552 65.9221 99.0867 64.3016C99.1817 63.848 99.0905 63.572 98.8847 63.1494C98.8321 62.0678 98.8395 61.0113 98.8468 59.9642C98.8577 58.4067 98.8684 56.8701 98.6813 55.3028C98.7285 54.9656 98.683 54.7641 98.4458 54.6989C98.4563 54.6913 98.4605 54.6888 98.4604 54.6885C98.4599 54.6876 98.3941 54.7217 98.3706 54.6413C98.1598 54.3247 97.9708 54.1168 97.6749 53.8972C97.4903 53.7871 97.4312 53.6858 97.3014 53.463L97.2987 53.4583C95.055 52.0751 92.8696 51.5487 90.4712 52.923C90.1409 53.0993 89.8826 53.1979 89.5024 53.3209C89.4216 53.3841 89.3405 53.4435 89.2611 53.5015C88.8819 53.779 88.5424 54.0272 88.4771 54.5364C88.4725 54.5672 88.4404 54.5954 88.3958 54.6345C88.356 54.6693 88.3064 54.7129 88.2573 54.7747C87.7793 55.5532 87.3586 56.3669 88.365 56.6539C89.3247 56.9275 90.5326 57.2653 91.1532 55.8294C91.1617 55.7952 91.2049 55.7695 91.2584 55.7377ZM94.4613 59.5901C94.1344 59.6938 93.7905 59.803 93.4623 59.7696C93.3688 59.7827 93.2837 59.794 93.2051 59.8044C92.9611 59.8368 92.78 59.8608 92.6047 59.907C92.5052 59.9333 92.4034 59.9588 92.3006 59.9846C91.1997 60.2605 89.9875 60.5642 90.3879 62.0916C90.7937 63.6392 92.179 63.4409 93.392 63.2673C93.4517 63.2588 93.5111 63.2503 93.5699 63.242C93.9626 63.1871 94.3565 62.9414 94.6899 62.7002C95.6357 62.0159 96.3238 61.0189 95.8621 59.9241C95.5726 59.2373 95.0439 59.4051 94.4613 59.5901Z" fill="#1D1717"/>
<path fill-rule="evenodd" clip-rule="evenodd" d="M83.0635 53.4367C82.8824 53.3039 82.6956 53.1667 82.4841 53.0155C80.6379 51.9317 78.9114 51.7719 77.0827 52.9357C76.6456 53.1866 76.276 53.3754 75.8358 53.6002C75.7881 53.6246 75.7394 53.6494 75.6898 53.6748C75.554 53.808 75.4133 53.9273 75.2756 54.0441C74.8771 54.382 74.5034 54.6989 74.3461 55.2679C74.1671 55.6068 74.0187 55.8446 73.7845 56.2108C72.7711 58.8333 72.9771 61.1751 74.7377 63.3813C75.0547 63.6498 75.3457 63.9029 75.6405 64.1595C75.9262 64.4079 76.2154 64.6595 76.5354 64.9313C78.8034 66.2217 80.9033 66.1298 83.0362 64.7273C83.4611 64.3725 83.8319 64.0831 84.2505 63.7565C84.3148 63.7063 84.3803 63.6553 84.4472 63.603C84.4993 63.5485 84.5507 63.4983 84.6002 63.4499C84.8115 63.2433 84.9872 63.0715 85.0294 62.7601C85.036 62.7308 85.0619 62.6984 85.0954 62.6565C85.1347 62.6073 85.1846 62.5449 85.2263 62.4586C84.9062 60.658 83.9319 61.0421 82.9354 61.435C82.801 61.4879 82.6661 61.5411 82.5325 61.5891C82.408 61.7587 82.3118 61.8265 82.1089 61.9523C80.5665 63.1128 79.0707 63.2726 77.4372 62.21C77.2508 62.1077 77.1829 62.0124 77.0723 61.7705C76.4695 60.432 76.9813 60.0411 78.1796 60.0623C80.1364 60.097 82.0945 60.0845 84.0519 60.0643C84.1387 60.0634 84.2269 60.0651 84.3155 60.0668C84.931 60.079 85.5654 60.0915 85.8769 59.2225C85.8663 58.9432 85.8646 58.7266 85.8627 58.4911C85.8618 58.3789 85.8609 58.2623 85.8589 58.1326C85.8576 58.1031 85.8563 58.074 85.8551 58.0452C85.8331 57.5383 85.8155 57.1338 85.5439 56.6836C85.4117 56.3741 85.3398 56.1603 85.2915 55.8235C85.2207 55.6902 85.1557 55.5554 85.0914 55.422C84.8012 54.8202 84.5248 54.2472 83.7957 53.9649C83.5328 53.7812 83.3033 53.6127 83.0635 53.4367ZM82.6391 56.5537C81.9633 55.3776 80.9316 54.7453 79.4062 54.7673C78.1226 54.9259 77.2551 55.4986 76.6696 56.4888C76.2156 57.2567 76.3433 57.7599 77.3313 57.7692C78.8858 57.7838 80.4409 57.7884 81.995 57.7602C82.8659 57.7444 83.0217 57.2196 82.6391 56.5537Z" fill="#1E1919"/>
<path d="M79.7086 13.5069C79.128 13.1715 79.0457 12.7288 79.12 12.1295C79.3864 11.5668 79.2578 11.0276 79.5184 10.457C79.7859 9.89276 80.1808 9.47747 80.6738 9.63234C82.3961 10.1734 82.3662 9.14305 82.3927 7.94224C82.4234 6.54869 83.003 5.51723 84.7315 5.55987C84.8967 5.78536 84.9443 5.95268 84.9705 6.24889C84.91 6.48844 84.8552 6.59476 84.7709 6.67608C84.1796 7.24686 83.2718 7.94765 84.1525 8.69051C85.0317 9.4321 85.7658 8.64801 86.2981 7.67806C86.8666 6.96637 87.5199 7.29539 88.2485 7.29426C88.4659 7.34258 88.5497 7.37372 88.7403 7.48557C89.2479 8.80604 90.1539 9.54124 91.3925 10.1339C91.6983 10.6528 91.7279 11.1055 91.7484 11.694C91.8159 12.7359 91.4812 13.7247 92.3836 14.5764C92.6667 14.8736 92.796 15.1072 92.7872 15.5141C91.5119 16.1984 92.1448 17.4021 91.7327 18.3761C91.5078 18.5961 91.352 18.6618 91.0475 18.6322C90.3373 17.6916 90.2052 15.9146 88.3251 17.3649C87.9963 17.5335 87.7699 17.531 87.4526 17.382C87.3154 17.2811 87.2683 17.2346 87.1786 17.1058C87.1361 17.0236 87.1591 16.8509 87.1591 16.8509C87.1591 16.8509 86.9924 16.9049 86.9634 16.9946C86.779 17.2319 86.5865 17.3009 86.2663 17.3561C86.0704 17.3619 85.9906 17.3565 85.7914 17.3239C84.975 16.9875 84.3905 16.4877 83.6208 16.0484C83.3871 15.7142 83.3461 15.4518 83.3845 15.042C83.4898 14.6394 83.6251 14.4013 83.9052 14.0957C84.1781 13.9377 84.3532 13.9038 84.6634 13.9452C85.3935 14.3664 85.9881 14.7332 86.7529 14.7586C88.122 14.8042 89.1279 14.0542 89.1289 12.9187C89.13 11.6215 88.1298 10.8423 86.6725 11.0012C86.2497 11.0473 85.8693 11.2198 85.3629 11.4124C85.1598 11.4481 85.0774 11.4504 84.8764 11.4244C84.4816 11.2797 84.247 11.035 83.7963 11.1515C83.4701 11.266 83.2553 11.3539 82.9335 11.4982C81.9687 11.8353 81.1089 12.1162 80.5918 13.1164C80.324 13.4079 80.1009 13.5313 79.7086 13.5069Z" fill="#1E1919"/>
<path d="M64.545 27.3369C63.7451 27.0037 63.4027 26.4203 63.5074 25.5023C63.6797 25.169 63.8074 24.9651 64.0428 24.6893C65.2168 23.0524 66.7271 21.9243 68.1957 20.5943C68.5901 20.5261 68.8618 20.4168 69.2856 20.3673C69.7829 20.426 70.0868 20.6209 70.4148 20.7484C71.4819 21.1633 71.9718 20.7951 71.9923 19.6708C72.0041 19.0203 72.1372 18.3823 72.3567 17.767C72.5974 17.0924 72.9608 16.6034 73.902 16.9488C74.094 17.213 74.1145 17.397 74.0101 17.7161C72.7734 20.157 74.1187 22.2741 74.4713 24.6085C74.3478 25.0592 74.6268 25.2744 74.6956 25.6484C74.786 25.9022 74.8486 26.0527 74.9071 26.3271C74.9783 27.0637 74.9362 27.6048 74.0172 27.6529C73.7083 27.4457 73.5471 27.2417 73.5374 27.0016C73.4544 24.961 72.172 24.2158 70.3791 23.6948C67.6302 22.8961 66.2584 23.4918 65.151 26.454C65.0039 26.8378 64.8609 27.07 64.545 27.3369Z" fill="#1E1919"/>
<path d="M99.3501 24.7452C100.815 23.1516 102.175 21.6364 103.572 20.1546C104.117 19.5753 104.778 18.9932 105.572 19.7331C106.362 20.4694 105.85 21.1264 105.29 21.7375C103.753 23.4157 102.244 25.1207 100.679 26.7717C100.058 27.4263 99.3964 28.5026 98.3277 27.4861C97.3197 26.5273 98.4211 25.9188 98.903 25.2399C99.0063 25.0944 99.1404 24.9707 99.3501 24.7452Z" fill="#251F1F"/>
<path d="M79.608 13.5848C79.7759 13.3555 79.9641 13.255 80.2478 13.1061C80.3904 13.0245 80.4449 12.9554 80.4838 12.9633C82.4655 13.3643 82.4653 13.365 82.8657 11.3297C83.0953 11.121 83.2459 11.0038 83.4969 10.874C83.8891 10.8849 84.1877 10.8735 84.5389 11.0983C84.6824 11.2182 84.7416 11.2666 84.8806 11.3976C85.1225 12.2987 84.8441 13.1014 84.8126 14.0236C84.5831 14.1333 84.4128 14.1345 84.1149 14.1399C83.8377 14.3055 83.7114 14.4797 83.6782 14.8145C83.6784 15.1441 83.6794 15.3647 83.6787 15.6956C83.5203 16.4329 82.621 17.0445 83.4526 17.695C84.2458 18.3157 84.8842 17.5941 85.6302 17.1376C85.8169 17.0622 85.9002 17.0517 86.1095 17.0353C86.4819 17.2405 86.7877 17.3904 86.9858 17.8168C87.052 18.0096 87.0674 18.0902 87.0593 18.2911C86.9776 18.4685 86.9193 18.5255 86.7388 18.5764C86.2983 18.737 85.9806 18.9051 85.6613 19.0699C84.6355 19.5991 83.5883 20.1863 82.4492 19.4322C81.3085 18.6769 81.3065 17.5086 81.5992 16.357C82.0426 14.6125 80.0059 14.7975 79.608 13.5848Z" fill="#2D2928"/>
<path d="M73.9537 27.5168C74.6613 27.4475 74.6162 26.9545 74.8225 26.5171C75.8232 29.3332 74.9944 30.4576 72.0542 30.143C69.3651 29.8553 66.7637 29.2157 64.4595 27.5126C64.4718 27.1529 64.5213 26.9013 64.6301 26.5361C66.3469 26.5274 67.7342 27.502 69.3032 27.8647C70.8208 28.2155 72.4276 29.1386 73.9537 27.5168Z" fill="#484646"/>
<path d="M89.0284 7.71945C88.8113 7.67433 88.7166 7.65888 88.4793 7.62358C88.2248 7.32414 88.3801 7.1542 88.6468 6.90158C89.0347 6.6404 89.3587 6.48141 89.7927 6.33305C90.306 6.28075 90.7087 6.20255 91.3183 6.3336C92.4703 7.40408 94.3828 8.0317 92.7467 10.0404C92.2406 10.6618 93.2677 10.9298 93.7013 11.2598C95.4546 12.5943 95.555 13.4492 93.9971 15.105C93.7151 15.0638 93.5942 14.9408 93.4698 14.6566C93.4329 13.2229 92.9958 12.2622 91.4053 12.0696C91.2694 11.4601 91.2502 10.8995 91.2095 10.172C90.8368 9.75511 90.5719 9.4067 90.6218 8.98738C90.7652 7.78338 90.0874 7.62991 89.0284 7.71945Z" fill="#1D1717"/>
<path d="M73.9759 16.7422C72.308 17.3545 72.2184 18.8492 72.438 19.9229C72.8824 22.0961 71.917 21.7707 70.617 21.2857C70.2855 21.1621 69.9599 21.0229 69.5801 20.7654C70.2192 19.2053 71.0352 17.8562 71.1543 16.1662C71.2598 14.6706 72.6734 15.5219 73.588 15.2052C73.881 15.2037 74.0464 15.2125 74.2478 15.3038C74.5753 15.866 74.526 16.2997 73.9759 16.7422Z" fill="#D4D1D0"/>
<path d="M73.5865 15.1104C73.9506 15.609 73.8603 15.9084 73.3576 15.8543C72.78 15.7922 72.2144 15.6183 71.5008 15.4615C71.8673 17.5566 71.2039 19.1937 69.6424 20.5877C69.22 20.6226 68.9117 20.605 68.4506 20.5622C69.4523 19.0428 70.9492 17.7198 70.0455 15.4435C69.7944 14.8111 70.4433 14.0462 71.232 14.489C71.9682 14.9023 72.7808 14.6163 73.5865 15.1104Z" fill="#444040"/>
<path d="M86.9425 18.5075C86.9385 18.3768 86.9298 18.2515 86.9263 18.1888C86.7214 17.768 86.9303 17.4838 87.1839 17.1034C87.4194 17.0968 87.5625 17.1778 87.7583 17.3232C88.9084 17.2406 89.6096 18.2556 90.7391 18.4033C91.0283 18.4633 91.204 18.4672 91.5116 18.4751C91.0359 20.6043 88.6512 21.2241 87.1106 19.5235C87.1502 19.1219 86.9735 18.8945 86.9425 18.5075Z" fill="#251F1F"/>
<path d="M105.57 25.8267C106.206 26.8526 105.874 27.5473 105.012 28.0201C104.374 28.3698 103.835 28.0497 103.428 27.5549C103.041 27.0849 103.027 26.5038 103.385 26.0432C103.951 25.3151 104.695 25.2774 105.57 25.8267Z" fill="#383636"/>
<path d="M97.9946 20.5159C98.8505 19.4932 99.6942 19.4157 100.383 20.4523C100.88 21.2012 100.462 21.9541 99.7451 22.1956C98.4305 22.6382 97.9111 21.8811 97.9946 20.5159Z" fill="#383636"/>
<path d="M73.8635 16.9749C73.9 16.363 73.9567 15.9247 74.1485 15.4365C75.786 16.097 75.7748 16.3607 74.0646 17.7947C73.9251 17.6125 73.9044 17.3805 73.8635 16.9749Z" fill="#444040"/>
<path d="M88.5719 6.81312C88.6208 7.00164 88.5309 7.20342 88.3889 7.5047C87.7936 7.75131 87.2684 7.2473 86.6086 7.5973C86.1979 7.6933 85.9911 7.55241 85.7839 7.19857C85.7741 6.98912 85.8048 6.90615 85.9539 6.76356C86.2504 6.68528 86.4216 6.70999 86.7156 6.80263C87.375 6.90149 87.9025 7.2285 88.5719 6.81312Z" fill="#383636"/>
<path d="M93.6456 14.0537C93.7913 14.327 93.8107 14.5637 93.8502 14.9775C93.7138 15.5837 93.283 15.5583 92.848 15.6741C92.6399 15.4552 92.5405 15.2683 92.3916 14.987C92.5001 14.2855 92.9666 14.0933 93.6456 14.0537Z" fill="#444040"/>
<path d="M84.7615 6.77895C84.7511 6.42219 84.7722 6.1919 84.8193 5.79011C85.5164 5.53233 85.8386 6.2595 86.5133 6.41996C86.433 6.69036 86.2356 6.70347 85.9695 6.79567C85.8934 6.85578 85.8171 6.93173 85.7804 6.97104C85.4017 7.20211 85.0833 7.18087 84.7615 6.77895Z" fill="#383636"/>
<path d="M79.4143 10.4038C79.7019 10.8745 79.7533 11.4073 79.2843 11.9649C78.9669 11.4829 79.0954 10.9755 79.4143 10.4038Z" fill="#5A5757"/>
<path d="M91.4538 6.28177C91.1113 6.40727 90.7045 6.43727 90.1002 6.40549C90.3584 5.91416 90.8665 5.98021 91.4538 6.28177Z" fill="#383636"/>
<path d="M74.7631 25.648C74.3587 25.5998 74.2946 25.3106 74.4223 24.8545C74.589 25.0133 74.6959 25.2788 74.7631 25.648Z" fill="#484646"/>
<path d="M64.0142 24.627C64.1649 24.9171 64.0364 25.1563 63.67 25.3572C63.4413 25.0266 63.6841 24.8463 64.0142 24.627Z" fill="#484646"/>
<path d="M86.8745 18.395C87.0281 18.6308 87.1181 18.885 87.1504 19.2668C86.9534 19.1986 86.8139 19.0028 86.6454 18.6887C86.6454 18.4736 86.7103 18.4213 86.8745 18.395Z" fill="#5A5757"/>
<path d="M86.0513 6.87009C86.0524 6.75899 86.2119 6.66211 86.4728 6.54883C86.638 6.56272 86.702 6.59303 86.806 6.72129C86.634 6.84094 86.4219 6.86263 86.0513 6.87009Z" fill="#1E1919"/>
<path d="M87.0958 8.94755C87.5972 8.78945 87.8436 8.97868 87.8457 9.39676C87.8463 9.50285 87.643 9.69245 87.5221 9.70217C87.0468 9.74037 86.9507 9.43761 87.0958 8.94755Z" fill="#383636"/>
<path d="M87.2748 16.9429C87.1918 17.3143 87.1074 17.613 86.9728 18.0188C86.7131 17.8314 86.5037 17.537 86.2648 17.1358C86.4232 16.9932 86.6113 16.9574 86.8753 16.8607C86.9898 16.7202 87.0282 16.6407 87.1709 16.6431C87.275 16.7251 87.2735 16.8703 87.2748 16.9429Z" fill="#150B0C"/>
<path d="M84.6317 11.0578C84.3329 11.1265 84.0428 11.0832 83.6748 10.9507C83.9816 10.4347 84.3474 10.2409 84.6317 11.0578Z" fill="#5A5757"/>
<path d="M87.2702 16.6118C87.2748 16.7256 87.1086 16.7416 87.0298 16.7709C86.7706 16.5945 86.4616 16.3548 86.8384 16.1274C87.0649 15.9908 87.2143 16.2611 87.2702 16.6118Z" fill="#2D2928"/>
<path d="M83.7834 14.8664C83.4164 14.6337 83.1854 14.3475 83.8797 14.1543C83.9545 14.3658 83.9223 14.5874 83.7834 14.8664Z" fill="#777372"/>
<path d="M90.3783 14.3033C90.3915 14.3256 90.3651 14.281 90.3783 14.3033Z" fill="#211B1A"/>
<path d="M86.3633 12.156C87.3458 11.5686 88.0285 11.7944 88.1646 12.7741C88.2574 13.442 87.6455 13.8978 87.0091 13.8142C86.1342 13.6992 85.8314 13.1146 86.3633 12.156Z" fill="#383636"/>
</mask>
<g mask="url(#mask0_637_1868)">
<rect x="-0.617188" y="-0.699219" width="123.353" height="95.1373" fill="#FAFAFA"/>
</g>
</svg>
