<svg width="123" height="94" viewBox="0 0 123 94" fill="none" xmlns="http://www.w3.org/2000/svg">
<mask id="mask0_637_1867" style="mask-type:alpha" maskUnits="userSpaceOnUse" x="0" y="0" width="123" height="95">
<path d="M11.8122 36.1011C9.4958 33.0879 7.28052 30.1583 5.01716 27.2664C4.68906 26.8471 4.49107 25.9565 3.75384 26.2525C3.09207 26.5182 3.39493 27.3205 3.39136 27.8816C3.31877 39.2725 3.24869 50.6634 3.23622 62.0545C3.23479 63.3581 2.91341 63.9072 1.51913 63.8648C0.31379 63.8282 -0.00678581 63.3814 0.00010821 62.2316C0.0745635 49.8159 0.105004 37.3999 0.148155 24.9839C0.149617 24.5621 0.104844 24.1313 0.174257 23.7203C0.331502 22.7894 -0.457458 21.5712 0.809674 20.9776C2.12849 20.3597 4.4146 21.0709 5.32019 22.2576C10.0697 28.4813 14.8166 34.707 19.5622 40.9338C20.9759 42.7886 21.0239 42.7848 22.4742 40.9145C27.2711 34.7287 32.0723 28.5462 36.8763 22.366C37.7053 21.2995 40.2595 20.6793 41.4301 21.2259C42.257 21.612 41.979 22.3563 41.9768 22.9699C41.9456 31.5888 41.9074 40.2076 41.842 48.8262C41.7409 62.1455 41.6479 75.465 41.467 88.7833C41.4432 90.5356 41.9356 91.0035 43.6865 90.9865C51.7618 90.9078 59.8387 90.9941 67.915 90.9857C69.0804 90.9845 69.9288 91.0592 69.8058 92.5966C69.7322 93.5153 69.4484 93.868 68.5154 93.8701C58.8721 93.8917 49.2288 93.9259 39.5859 94.0002C38.1917 94.011 38.2578 93.2045 38.2635 92.2341C38.3669 74.8763 38.4537 57.5184 38.5447 40.1606C38.5665 36.0021 38.5979 31.8436 38.6022 27.685C38.6026 27.2384 38.8932 26.5915 38.3521 26.3781C37.6916 26.1175 37.4808 26.8694 37.1855 27.2504C32.2426 33.6264 27.3228 40.0203 22.396 46.4088C21.1194 48.0641 20.9593 48.084 19.6641 46.4014C17.0569 43.0141 14.4846 39.6 11.8122 36.1011Z" fill="#211818"/>
<path d="M114.699 37.5836C114.322 38.4798 113.526 38.1588 112.856 38.1594C105.624 38.166 98.3917 38.1877 91.161 38.0918C89.5438 38.0704 88.8978 38.4293 88.9745 40.1763C89.1435 44.0248 88.4545 43.4804 92.3546 43.5154C95.1868 43.5408 98.0194 43.5271 100.852 43.5149C101.846 43.5107 102.822 43.7228 102.777 44.884C102.737 45.937 101.752 46.0613 100.859 46.061C91.4581 46.0582 82.0568 46.0574 72.6555 46.0555C71.7727 46.0554 70.8126 45.9916 70.7613 44.8714C70.7043 43.6258 71.6985 43.5099 72.6598 43.5101C75.7333 43.5106 78.8075 43.4769 81.88 43.5356C83.0429 43.5579 83.4828 43.1709 83.4674 41.9809C83.4076 37.3334 84.1195 38.1395 79.7686 38.1082C72.8987 38.0587 66.0283 38.0893 59.1581 38.0747C57.0179 38.0702 56.754 37.8077 56.7554 35.6887C56.7628 24.5399 56.7939 13.3911 56.7767 2.24232C56.7742 0.621397 57.4115 -0.00619539 59.0435 4.60524e-05C77.1828 0.0694218 95.3222 0.10488 113.462 0.121615C115.031 0.123062 115.588 0.81779 115.582 2.32462C115.534 13.5337 115.523 24.7429 115.499 35.9521C115.498 36.549 115.598 37.1727 114.947 37.6662C113.819 36.2798 114.138 34.6247 114.28 33.142C114.764 28.0881 114.475 23.0343 114.541 17.9824C114.601 13.3473 114.565 8.71083 114.549 4.07501C114.54 1.4668 114.414 1.33878 111.778 1.33741C95.5225 1.32895 79.2669 1.33391 63.0113 1.33308C62.1082 1.33304 61.2052 1.33077 60.3021 1.31862C58.013 1.28782 57.8628 1.40325 57.8568 3.75644C57.8332 13.0883 57.8466 22.4203 57.8504 31.7522C57.8509 32.8361 57.8159 33.9183 57.7885 35.1696C57.814 36.959 58.9146 37.0796 60.1537 37.0792C66.8375 37.0771 73.5213 37.0749 80.2051 37.0784C80.8674 37.0787 81.5312 37.054 82.1913 37.1128C83.8762 37.2631 84.3979 37.7895 84.5618 39.4732C84.9897 43.8682 84.2245 44.7093 79.8334 44.7271C77.6064 44.7361 75.3786 44.6632 73.1526 44.7772C73.1203 44.7788 73.0922 44.8628 72.9849 45.0254C82.1334 45.0454 91.2049 45.0356 100.28 44.8815C97.8993 44.7157 95.5144 44.7282 93.13 44.7231C92.2871 44.7213 91.4438 44.7403 90.6015 44.6938C90.0577 44.6638 89.5194 44.598 89.0355 44.3202C87.868 43.6499 87.408 41.2896 87.9272 38.9672C88.2577 37.4896 89.2822 37.1024 90.6049 37.0948C96.3251 37.0616 102.045 37.0767 107.93 37.1007C108.64 37.1388 109.188 37.1418 109.899 37.1315C111.259 37.0819 112.456 37.0898 113.815 37.1742C114.196 37.2519 114.394 37.3436 114.699 37.5836Z" fill="#444040"/>
<path d="M113.724 62.8686C113.532 63.8313 114.253 64.9374 112.988 65.3676C111.531 65.8634 110.717 65.2548 110.713 63.6837C110.705 60.5501 110.709 57.4165 110.724 54.2829C110.731 52.7616 111.992 52.001 113.187 52.9761C113.909 53.5645 114.226 53.3626 114.845 53.06C118.556 51.2486 121.898 53.2337 122.036 57.3506C122.111 59.5778 122.008 61.8109 122.077 64.0386C122.114 65.2371 121.527 65.4001 120.521 65.4179C119.423 65.4373 119.01 65.0655 119.045 63.9547C119.108 61.968 119.1 59.9771 119.055 57.9895C119.01 55.9932 118.216 55.0626 116.646 55.0189C114.951 54.9718 113.83 56.0829 113.752 58.0024C113.689 59.5669 113.73 61.1355 113.724 62.8686Z" fill="#221D1E"/>
<path d="M48.798 64.2029C46.3817 61.6931 45.8537 58.6847 47.2505 55.8389C48.3813 53.535 50.8442 52.1812 53.5104 52.4548C55.4787 52.6568 57.0845 53.5323 58.0694 55.2949C58.3845 55.8587 59.2001 56.6311 58.3522 57.1726C57.638 57.6288 56.6241 57.5879 55.793 57.0583C55.6975 56.9974 55.6475 56.8689 55.567 56.7803C53.8151 54.8538 52.1471 54.5676 50.644 55.9338C49.148 57.2936 49.0984 60.6005 50.5524 62.037C51.9344 63.4024 54.0016 63.2739 55.3018 61.6917C55.6843 61.2263 55.9229 60.6012 56.6593 60.6995C57.283 60.7828 58.0664 60.3311 58.5054 61.0189C58.9381 61.6968 58.3615 62.2868 58.0397 62.8284C56.1943 65.934 52.3833 66.5308 48.798 64.2029Z" fill="#221C1C"/>
<path d="M72.1706 62.8008C72.684 65.2646 72.5802 65.3916 70.2637 65.3925C67.7936 65.3934 65.3228 65.3671 62.8537 65.4179C61.7536 65.4406 61.3806 65.0189 61.3904 63.9247C61.4339 59.1053 61.4489 54.2848 61.3892 49.4658C61.3727 48.1359 62.0374 48.058 63.073 48.0262C64.244 47.9902 64.4956 48.5074 64.4841 49.5488C64.4435 53.2234 64.555 56.9017 64.4314 60.5726C64.3755 62.2329 64.9832 62.6074 66.5059 62.5694C68.3571 62.5231 70.2291 62.3021 72.1706 62.8008Z" fill="#221D1E"/>
<path d="M102.12 57.552C102.117 56.3514 102.097 55.329 102.118 54.3074C102.149 52.8177 103.379 51.9293 104.415 52.8712C105.549 53.9016 106.195 53.0789 107.046 52.814C108.688 52.3029 109.242 52.7303 109.091 54.3364C109.02 55.0884 108.657 55.2986 107.956 55.4331C105.854 55.8366 105.233 56.5972 105.171 58.7334C105.126 60.2953 105.141 61.8596 105.161 63.4225C105.174 64.487 105.282 65.4263 103.67 65.4498C101.928 65.4751 102.096 64.4409 102.112 63.3217C102.138 61.4583 102.121 59.5943 102.12 57.552Z" fill="#251F1F"/>
<path d="M99.1522 64.4208C98.9684 64.1615 98.8916 63.8777 98.8706 63.4541C99.6689 63.4807 99.7044 63.8647 99.1522 64.4208Z" fill="#D7D4D4"/>
<path d="M108.361 37.5228C102.42 37.6044 96.5759 37.6712 90.734 37.5803C89.005 37.5535 88.3529 38.0748 88.3886 39.8218C88.4826 44.4112 87.9451 44.1505 92.6722 44.1293C95.2025 44.1179 97.7336 44.093 100.263 44.1518C100.881 44.1662 102.007 43.689 102.007 44.767C102.007 45.874 100.862 45.5575 100.145 45.5617C95.9281 45.586 91.7109 45.5723 87.4938 45.5717C82.8549 45.571 78.2161 45.5707 73.5772 45.5697C73.1556 45.5696 72.7317 45.592 72.313 45.5557C71.8042 45.5115 71.2763 45.3044 71.2829 44.7463C71.2906 44.0911 71.9171 44.1281 72.3823 44.1264C75.515 44.1152 78.649 44.0699 81.7799 44.1453C83.3928 44.1842 84.0695 43.6143 84.0441 41.946C83.9674 36.9177 84.6299 37.6413 79.7495 37.6169C72.8817 37.5827 66.0135 37.5777 59.1459 37.6241C57.7704 37.6334 57.056 37.2557 57.2954 35.6288C57.7223 34.2699 58.4739 34.0006 59.7872 34.0972C63.1189 34.3421 66.472 34.4531 69.9766 33.9853C70.6177 33.8468 71.0985 33.8133 71.5795 33.8131C85.2306 33.808 98.8817 33.7488 112.712 33.8612C114.539 34.4295 114.63 34.6563 114.153 37.4519C112.835 37.6062 111.621 37.6128 110.242 37.6085C109.571 37.1896 109.025 37.2105 108.361 37.5228Z" fill="#150B0C"/>
<path d="M114.178 37.6113C113.668 36.5545 114.918 35.0774 113.045 34.3722C112.234 33.5182 112.394 32.5213 112.393 31.5728C112.377 23.0164 112.39 14.46 112.381 5.90359C112.379 3.20418 112.32 3.14379 109.679 3.14299C94.0729 3.13829 78.4665 3.13737 62.8602 3.14355C60.084 3.14465 59.9552 3.21551 60.0295 5.96853C60.2505 14.1641 59.5693 22.3436 59.6529 30.5356C59.6817 33.3661 59.7371 33.4286 62.6269 33.4423C64.3141 33.4503 66.0016 33.4214 67.6883 33.4568C68.4622 33.4731 69.274 33.4114 69.9043 34.2213C69.3212 35.0146 68.5471 34.7605 67.8627 34.7332C64.9239 34.616 61.9569 35.13 59.0492 34.4306C58.0838 34.1984 58.0879 35.1503 57.4311 35.4481C57.3003 24.4583 57.3061 13.4399 57.2771 2.42153C57.2732 0.926078 57.7671 0.278787 59.3374 0.669889C59.9051 0.811282 60.536 0.701942 61.138 0.702222C78.3588 0.710245 95.5796 0.744902 112.8 0.685764C114.655 0.679394 115.14 1.24061 115.121 3.04931C115.028 11.9599 115.087 20.8719 115.049 29.7832C115.038 32.3058 114.882 34.8278 114.806 37.5221C114.819 37.6941 114.782 37.6485 114.803 37.6696C114.652 37.6681 114.48 37.6456 114.178 37.6113Z" fill="#161112"/>
<path d="M108.414 37.6128C108.721 36.614 109.326 36.6756 110.048 37.4739C109.573 37.6076 109.069 37.6177 108.414 37.6128Z" fill="#161112"/>
<path fill-rule="evenodd" clip-rule="evenodd" d="M94.6352 76.2648C94.6446 75.4966 94.4465 74.9482 93.3781 75.0401C91.9446 74.8519 91.5874 75.4449 91.601 76.6824C91.6381 80.0713 91.6344 83.4606 91.6307 86.8499C91.6289 88.5098 91.6271 90.1698 91.6301 91.8297C91.6302 91.9199 91.6256 92.0151 91.6208 92.1118C91.5954 92.6293 91.5677 93.1927 92.2651 93.2978C92.3661 93.3131 92.4729 93.3334 92.5828 93.3543C93.1984 93.4715 93.9114 93.6073 94.254 92.9678C94.7018 92.1319 95.0645 92.3731 95.4976 92.6611C95.5881 92.7212 95.6816 92.7834 95.7796 92.8382C98.1782 94.1803 101.173 93.7133 102.859 91.7673C104.966 89.3362 105.077 85.1142 103.103 82.5354C101.508 80.4526 98.5084 79.7027 96.131 81.044C94.6392 81.8856 94.5732 81.2739 94.616 80.0513C94.6427 79.2911 94.6386 78.5299 94.6345 77.7686C94.6318 77.2673 94.6291 76.7659 94.6352 76.2648ZM95.2472 89.5282C96.219 90.9621 97.5899 91.2821 99.8314 90.4928C101.562 89.1203 101.844 87.4184 101.335 85.5533C100.98 84.2552 100.109 83.3547 98.7439 83.0887C97.4843 82.8434 96.3718 83.1723 95.504 84.1621C94.2927 85.5436 94.1804 87.9542 95.2472 89.5282Z" fill="#211B1A"/>
<path fill-rule="evenodd" clip-rule="evenodd" d="M86.6808 81.3191C83.7417 79.2008 78.9696 80.5428 77.5558 83.9907C78.6261 85.1805 79.7103 85.1081 80.6466 83.9622C81.6592 82.7231 82.9155 82.7471 84.2478 83.1173C84.926 83.3057 85.4387 83.8074 85.4456 84.5448C85.4522 85.2616 84.9213 85.317 84.426 85.3687C84.3178 85.38 84.2113 85.3911 84.1125 85.4089C83.7287 85.478 83.3421 85.5361 82.9556 85.5942C81.7338 85.7778 80.5121 85.9615 79.3755 86.492C77.7161 87.2666 76.8879 88.7319 77.1705 90.4347C77.4611 92.1859 78.5712 93.1995 80.2849 93.4955C81.7951 93.7563 83.3014 93.703 84.6348 92.8147C85.2654 92.3946 85.6624 92.2231 86.2047 93.0345C86.5689 93.5792 87.2326 93.4594 87.8428 93.3492C87.9768 93.325 88.1082 93.3013 88.2333 93.2852C88.6605 93.2301 88.7572 92.8389 88.7025 92.4443C88.4894 90.9071 88.5123 89.3642 88.5353 87.8213C88.5508 86.7767 88.5664 85.732 88.5086 84.6892C88.4305 83.2793 87.8292 82.1468 86.6808 81.3191ZM81.174 91.1473C83.1097 91.792 84.8669 90.8098 85.5869 88.5362C85.6186 88.0714 85.5686 87.639 85.2794 87.6308C83.6121 87.5834 81.9036 87.6362 80.5116 88.6588C79.5327 89.3779 79.9588 90.7425 81.174 91.1473Z" fill="#241E1D"/>
<path fill-rule="evenodd" clip-rule="evenodd" d="M91.2582 55.7377C91.296 55.7152 91.339 55.6897 91.3786 55.656C92.7691 54.8238 94.0342 54.9759 95.2623 55.7145C95.2587 55.7174 95.2571 55.7183 95.2572 55.7188C95.2576 55.7208 95.287 55.7162 95.3364 55.8043C95.6796 56.5936 95.6007 57.1082 94.7431 57.1651C94.2213 57.1998 93.7253 57.3408 93.199 57.4905C92.8786 57.5817 92.5469 57.676 92.1915 57.7514C91.8336 57.8268 91.5769 57.8501 91.2325 57.8813C91.1993 57.8843 91.1652 57.8874 91.1301 57.8906C90.9403 57.9501 90.7512 57.9996 90.5655 58.0482C89.8447 58.2368 89.1741 58.4123 88.702 59.1078C88.4509 59.3754 88.2434 59.5498 87.9543 59.7913C87.7277 60.0216 87.6488 60.2133 87.621 60.5516C87.5708 60.7572 87.5233 60.8926 87.459 61.0762C87.4383 61.1351 87.4159 61.1989 87.3912 61.2716C87.2069 62.3896 87.3461 63.2842 88.0418 64.0033C88.058 63.967 88.1365 63.9791 88.2015 64.0926C88.965 65.1265 90.01 65.3339 91.1643 65.563C91.2494 65.5799 91.3352 65.5969 91.4214 65.6144C92.0712 65.5953 92.571 65.5624 93.1974 65.5179C93.8358 65.5028 94.2781 65.2393 94.7466 64.9602C94.8336 64.9084 94.9216 64.856 95.0118 64.8046C95.0449 64.7894 95.0886 64.7578 95.1358 64.7235C95.1835 64.689 95.2347 64.6518 95.2824 64.6263C95.7512 64.3694 96.0604 64.4759 96.3952 64.8983C96.4818 64.9381 96.5684 64.9792 96.6549 65.0203C97.6164 65.4775 98.5518 65.9221 99.0865 64.3016C99.1815 63.848 99.0903 63.572 98.8845 63.1494C98.8319 62.0678 98.8392 61.0113 98.8465 59.9642C98.8574 58.4067 98.8681 56.8701 98.6811 55.3028C98.7282 54.9656 98.6828 54.7641 98.4455 54.6989C98.456 54.6913 98.4603 54.6888 98.4602 54.6885C98.4597 54.6876 98.3939 54.7217 98.3704 54.6413C98.1596 54.3247 97.9705 54.1168 97.6747 53.8972C97.49 53.7871 97.431 53.6858 97.3012 53.463L97.2984 53.4583C95.0548 52.0751 92.8694 51.5487 90.4709 52.923C90.1407 53.0993 89.8824 53.1979 89.5021 53.3209C89.4214 53.3841 89.3403 53.4435 89.2609 53.5015C88.8816 53.779 88.5422 54.0272 88.4768 54.5364C88.4723 54.5672 88.4402 54.5954 88.3955 54.6345C88.3558 54.6693 88.3061 54.7129 88.2571 54.7747C87.779 55.5532 87.3584 56.3669 88.3648 56.6539C89.3245 56.9275 90.5324 57.2653 91.1529 55.8294C91.1614 55.7952 91.2046 55.7695 91.2582 55.7377ZM94.4614 59.5898C94.1345 59.6936 93.7905 59.8028 93.4624 59.7693C93.3689 59.7825 93.2838 59.7938 93.2052 59.8042C92.9612 59.8365 92.78 59.8606 92.6048 59.9068C92.5053 59.9331 92.4035 59.9586 92.3007 59.9843C91.1998 60.2602 89.9876 60.564 90.388 62.0913C90.7938 63.6389 92.1791 63.4407 93.3921 63.2671C93.4518 63.2585 93.5112 63.25 93.57 63.2418C93.9627 63.1869 94.3566 62.9412 94.69 62.6999C95.6358 62.0156 96.3239 61.0186 95.8622 59.9239C95.5727 59.2371 95.044 59.4049 94.4614 59.5898Z" fill="#1D1717"/>
<path fill-rule="evenodd" clip-rule="evenodd" d="M83.0632 53.4362C82.8822 53.3034 82.6953 53.1662 82.4839 53.015C80.6377 51.9312 78.9112 51.7714 77.0824 52.9352C76.6453 53.1861 76.2758 53.3749 75.8356 53.5997C75.7878 53.6241 75.7392 53.649 75.6896 53.6743C75.5538 53.8075 75.4131 53.9268 75.2753 54.0436C74.8769 54.3815 74.5032 54.6984 74.3458 55.2674C74.1669 55.6063 74.0184 55.8441 73.7843 56.2103C72.7708 58.8328 72.9769 61.1746 74.7374 63.3808C75.0544 63.6493 75.3454 63.9025 75.6403 64.159C75.9259 64.4074 76.2151 64.659 76.5351 64.9308C78.8032 66.2213 80.9031 66.1293 83.036 64.7268C83.4609 64.372 83.8317 64.0827 84.2503 63.756C84.3146 63.7058 84.38 63.6548 84.4469 63.6025C84.4991 63.5481 84.5505 63.4978 84.5999 63.4494C84.8113 63.2428 84.987 63.071 85.0292 62.7596C85.0358 62.7303 85.0616 62.6979 85.0951 62.656C85.1345 62.6068 85.1843 62.5444 85.2261 62.4581C84.906 60.6575 83.9316 61.0416 82.9351 61.4345C82.8007 61.4875 82.6659 61.5406 82.5322 61.5886C82.4078 61.7582 82.3115 61.826 82.1086 61.9518C80.5663 63.1123 79.0705 63.2722 77.4369 62.2095C77.2506 62.1072 77.1827 62.0119 77.0721 61.77C76.4692 60.4315 76.981 60.0406 78.1794 60.0619C80.1362 60.0965 82.0943 60.084 84.0516 60.0638C84.1384 60.0629 84.2266 60.0646 84.3152 60.0664C84.9308 60.0785 85.5651 60.091 85.8767 59.222C85.8661 58.9427 85.8644 58.7261 85.8625 58.4906C85.8616 58.3784 85.8606 58.2618 85.8587 58.1321C85.8574 58.1026 85.8561 58.0735 85.8549 58.0447C85.8328 57.5378 85.8152 57.1333 85.5437 56.6831C85.4115 56.3736 85.3395 56.1599 85.2913 55.823C85.2205 55.6897 85.1555 55.5549 85.0912 55.4215C84.8009 54.8197 84.5246 54.2467 83.7955 53.9644C83.5326 53.7807 83.303 53.6122 83.0632 53.4362ZM82.6389 56.5539C81.9631 55.3778 80.9315 54.7455 79.4061 54.7675C78.1224 54.9261 77.255 55.4988 76.6694 56.489C76.2154 57.2569 76.3431 57.7601 77.3312 57.7694C78.8856 57.7841 80.4407 57.7886 81.9949 57.7604C82.8658 57.7446 83.0215 57.2198 82.6389 56.5539Z" fill="#1E1919"/>
<path d="M79.7086 13.5069C79.128 13.1715 79.0457 12.7288 79.12 12.1295C79.3864 11.5668 79.2578 11.0276 79.5184 10.457C79.7859 9.89276 80.1808 9.47747 80.6738 9.63234C82.3961 10.1734 82.3662 9.14305 82.3927 7.94224C82.4234 6.54869 83.003 5.51723 84.7315 5.55987C84.8967 5.78536 84.9443 5.95268 84.9705 6.24889C84.91 6.48844 84.8552 6.59476 84.7709 6.67608C84.1796 7.24686 83.2718 7.94765 84.1525 8.69051C85.0317 9.4321 85.7658 8.64801 86.2981 7.67806C86.8666 6.96637 87.5199 7.29539 88.2485 7.29426C88.4659 7.34258 88.5497 7.37372 88.7403 7.48557C89.2479 8.80604 90.1539 9.54124 91.3925 10.1339C91.6983 10.6528 91.7279 11.1055 91.7484 11.694C91.8159 12.7359 91.4812 13.7247 92.3836 14.5764C92.6667 14.8736 92.796 15.1072 92.7872 15.5141C91.5119 16.1984 92.1448 17.4021 91.7327 18.3761C91.5078 18.5961 91.352 18.6618 91.0475 18.6322C90.3373 17.6916 90.2052 15.9146 88.3251 17.3649C87.9963 17.5335 87.7699 17.531 87.4526 17.382C87.3154 17.2811 87.2683 17.2346 87.1786 17.1058C87.1361 17.0236 87.1591 16.8509 87.1591 16.8509C87.1591 16.8509 86.9924 16.9049 86.9634 16.9946C86.779 17.2319 86.5865 17.3009 86.2663 17.3561C86.0704 17.3619 85.9906 17.3565 85.7914 17.3239C84.975 16.9875 84.3905 16.4877 83.6208 16.0484C83.3871 15.7142 83.3461 15.4518 83.3845 15.042C83.4898 14.6394 83.6251 14.4013 83.9052 14.0957C84.1781 13.9377 84.3532 13.9038 84.6634 13.9452C85.3935 14.3664 85.9881 14.7332 86.7529 14.7586C88.122 14.8042 89.1279 14.0542 89.1289 12.9187C89.13 11.6215 88.1298 10.8423 86.6725 11.0012C86.2497 11.0473 85.8693 11.2198 85.3629 11.4124C85.1598 11.4481 85.0774 11.4504 84.8764 11.4244C84.4816 11.2797 84.247 11.035 83.7963 11.1515C83.4701 11.266 83.2553 11.3539 82.9335 11.4982C81.9687 11.8353 81.1089 12.1162 80.5918 13.1164C80.324 13.4079 80.1009 13.5313 79.7086 13.5069Z" fill="#1E1919"/>
<path d="M64.5447 27.3364C63.7449 27.0032 63.4024 26.4199 63.5071 25.5018C63.6794 25.1685 63.8072 24.9647 64.0426 24.6888C65.2166 23.0519 66.7268 21.9238 68.1955 20.5938C68.5898 20.5256 68.8616 20.4163 69.2854 20.3668C69.7827 20.4255 70.0866 20.6204 70.4145 20.7479C71.4816 21.1628 71.9716 20.7946 71.992 19.6703C72.0039 19.0198 72.137 18.3818 72.3564 17.7665C72.5971 17.0919 72.9605 16.6029 73.9018 16.9483C74.0937 17.2125 74.1143 17.3965 74.0099 17.7156C72.7731 20.1565 74.1184 22.2737 74.471 24.608C74.3475 25.0587 74.6266 25.2739 74.6953 25.6479C74.7858 25.9017 74.8484 26.0522 74.9068 26.3266C74.978 27.0632 74.9359 27.6043 74.017 27.6524C73.7081 27.4452 73.5469 27.2412 73.5371 27.0011C73.4542 24.9606 72.1717 24.2153 70.3789 23.6943C67.6299 22.8956 66.2581 23.4913 65.1508 26.4536C65.0036 26.8373 64.8607 27.0695 64.5447 27.3364Z" fill="#1E1919"/>
<path d="M99.3501 24.7452C100.815 23.1516 102.175 21.6364 103.572 20.1546C104.117 19.5753 104.778 18.9932 105.572 19.7331C106.362 20.4694 105.85 21.1264 105.29 21.7375C103.753 23.4157 102.244 25.1207 100.679 26.7717C100.058 27.4263 99.3964 28.5026 98.3277 27.4861C97.3197 26.5273 98.4211 25.9188 98.903 25.2399C99.0063 25.0944 99.1404 24.9707 99.3501 24.7452Z" fill="#251F1F"/>
<path d="M79.6079 13.5848C79.7758 13.3555 79.964 13.255 80.2477 13.1061C80.3903 13.0245 80.4448 12.9554 80.4836 12.9633C82.4653 13.3643 82.4652 13.365 82.8656 11.3297C83.0952 11.121 83.2458 11.0038 83.4967 10.874C83.889 10.8849 84.1876 10.8735 84.5388 11.0983C84.6823 11.2182 84.7415 11.2666 84.8804 11.3976C85.1224 12.2987 84.8439 13.1014 84.8125 14.0236C84.583 14.1333 84.4127 14.1345 84.1148 14.1399C83.8376 14.3055 83.7113 14.4797 83.6781 14.8145C83.6783 15.1441 83.6793 15.3647 83.6785 15.6956C83.5201 16.4329 82.6209 17.0445 83.4524 17.695C84.2457 18.3157 84.8841 17.5941 85.6301 17.1376C85.8167 17.0622 85.9001 17.0517 86.1094 17.0353C86.4818 17.2405 86.7875 17.3904 86.9856 17.8168C87.0519 18.0096 87.0673 18.0902 87.0592 18.2911C86.9775 18.4685 86.9192 18.5255 86.7387 18.5764C86.2981 18.737 85.9805 18.9051 85.6611 19.0699C84.6353 19.5991 83.5882 20.1863 82.4491 19.4322C81.3084 18.6769 81.3064 17.5086 81.5991 16.357C82.0425 14.6125 80.0057 14.7975 79.6079 13.5848Z" fill="#2D2928"/>
<path d="M73.9534 27.5168C74.6611 27.4475 74.616 26.9545 74.8222 26.5171C75.8229 29.3332 74.9941 30.4576 72.054 30.143C69.3649 29.8553 66.7634 29.2157 64.4592 27.5126C64.4716 27.1529 64.5211 26.9013 64.6299 26.5361C66.3466 26.5274 67.734 27.502 69.303 27.8647C70.8205 28.2155 72.4274 29.1386 73.9534 27.5168Z" fill="#484646"/>
<path d="M89.0281 7.71945C88.8111 7.67433 88.7163 7.65888 88.479 7.62358C88.2246 7.32414 88.3799 7.1542 88.6465 6.90158C89.0344 6.6404 89.3585 6.48141 89.7924 6.33305C90.3057 6.28075 90.7084 6.20255 91.3181 6.3336C92.47 7.40408 94.3826 8.0317 92.7465 10.0404C92.2404 10.6618 93.2675 10.9298 93.701 11.2598C95.4543 12.5943 95.5547 13.4492 93.9969 15.105C93.7148 15.0638 93.5939 14.9408 93.4695 14.6566C93.4326 13.2229 92.9955 12.2622 91.4051 12.0696C91.2692 11.4601 91.2499 10.8995 91.2092 10.172C90.8365 9.75511 90.5716 9.4067 90.6216 8.98738C90.765 7.78338 90.0872 7.62991 89.0281 7.71945Z" fill="#1D1717"/>
<path d="M73.9757 16.7422C72.3077 17.3545 72.2182 18.8492 72.4377 19.9229C72.8822 22.0961 71.9168 21.7707 70.6168 21.2857C70.2853 21.1621 69.9596 21.0229 69.5798 20.7654C70.219 19.2053 71.035 17.8562 71.1541 16.1662C71.2595 14.6706 72.6732 15.5219 73.5878 15.2052C73.8807 15.2037 74.0461 15.2125 74.2475 15.3038C74.575 15.866 74.5257 16.2997 73.9757 16.7422Z" fill="#D4D1D0"/>
<path d="M73.5866 15.1099C73.9507 15.6085 73.8604 15.9079 73.3577 15.8538C72.7801 15.7917 72.2145 15.6178 71.5009 15.461C71.8674 17.5561 71.204 19.1932 69.6425 20.5872C69.2202 20.6221 68.9118 20.6045 68.4507 20.5617C69.4524 19.0423 70.9493 17.7193 70.0456 15.443C69.7946 14.8106 70.4434 14.0458 71.2321 14.4886C71.9683 14.9019 72.7809 14.6158 73.5866 15.1099Z" fill="#444040"/>
<path d="M86.9426 18.5075C86.9386 18.3768 86.9299 18.2515 86.9264 18.1888C86.7215 17.768 86.9304 17.4838 87.184 17.1034C87.4195 17.0968 87.5626 17.1778 87.7584 17.3232C88.9086 17.2406 89.6098 18.2556 90.7392 18.4033C91.0284 18.4633 91.2042 18.4672 91.5118 18.4751C91.036 20.6043 88.6513 21.2241 87.1107 19.5235C87.1503 19.1219 86.9737 18.8945 86.9426 18.5075Z" fill="#251F1F"/>
<path d="M105.57 25.8267C106.206 26.8526 105.874 27.5473 105.012 28.0201C104.374 28.3698 103.835 28.0497 103.428 27.5549C103.041 27.0849 103.027 26.5038 103.385 26.0432C103.951 25.3151 104.695 25.2774 105.57 25.8267Z" fill="#383636"/>
<path d="M97.9947 20.5159C98.8506 19.4932 99.6943 19.4157 100.383 20.4523C100.88 21.2012 100.463 21.9541 99.7452 22.1956C98.4306 22.6382 97.9113 21.8811 97.9947 20.5159Z" fill="#383636"/>
<path d="M73.8633 16.9749C73.8998 16.363 73.9565 15.9247 74.1482 15.4365C75.7857 16.097 75.7745 16.3607 74.0644 17.7947C73.9249 17.6125 73.9042 17.3805 73.8633 16.9749Z" fill="#444040"/>
<path d="M88.5717 6.81312C88.6205 7.00164 88.5307 7.20342 88.3886 7.5047C87.7934 7.75131 87.2681 7.2473 86.6084 7.5973C86.1976 7.6933 85.9909 7.55241 85.7836 7.19857C85.7739 6.98912 85.8046 6.90615 85.9536 6.76356C86.2502 6.68528 86.4214 6.70999 86.7153 6.80263C87.3747 6.90149 87.9023 7.2285 88.5717 6.81312Z" fill="#383636"/>
<path d="M93.6454 14.0542C93.791 14.3275 93.8105 14.5642 93.85 14.978C93.7136 15.5842 93.2828 15.5588 92.8478 15.6746C92.6397 15.4557 92.5403 15.2688 92.3914 14.9875C92.4998 14.286 92.9664 14.0938 93.6454 14.0542Z" fill="#444040"/>
<path d="M84.7616 6.77895C84.7512 6.42219 84.7723 6.1919 84.8194 5.79011C85.5165 5.53233 85.8387 6.2595 86.5134 6.41996C86.4331 6.69036 86.2358 6.70347 85.9696 6.79567C85.8935 6.85578 85.8172 6.93173 85.7805 6.97104C85.4019 7.20211 85.0835 7.18087 84.7616 6.77895Z" fill="#383636"/>
<path d="M79.414 10.4038C79.7017 10.8745 79.7531 11.4073 79.284 11.9649C78.9666 11.4829 79.0952 10.9755 79.414 10.4038Z" fill="#5A5757"/>
<path d="M91.4539 6.28177C91.1114 6.40727 90.7046 6.43727 90.1003 6.40549C90.3585 5.91416 90.8666 5.98021 91.4539 6.28177Z" fill="#383636"/>
<path d="M74.7632 25.648C74.3589 25.5998 74.2947 25.3106 74.4224 24.8545C74.5891 25.0133 74.696 25.2788 74.7632 25.648Z" fill="#484646"/>
<path d="M64.0142 24.627C64.1649 24.9171 64.0364 25.1563 63.67 25.3572C63.4413 25.0266 63.6841 24.8463 64.0142 24.627Z" fill="#484646"/>
<path d="M86.8744 18.3945C87.0279 18.6303 87.1179 18.8845 87.1503 19.2663C86.9532 19.1981 86.8138 19.0023 86.6453 18.6882C86.6452 18.4731 86.7101 18.4208 86.8744 18.3945Z" fill="#5A5757"/>
<path d="M86.0513 6.87009C86.0524 6.75899 86.2119 6.66211 86.4728 6.54883C86.638 6.56272 86.702 6.59303 86.806 6.72129C86.634 6.84094 86.4219 6.86263 86.0513 6.87009Z" fill="#1E1919"/>
<path d="M87.0961 8.94755C87.5975 8.78945 87.8438 8.97868 87.846 9.39676C87.8465 9.50285 87.6433 9.69245 87.5223 9.70217C87.0471 9.74037 86.951 9.43761 87.0961 8.94755Z" fill="#383636"/>
<path d="M87.2749 16.9429C87.1919 17.3143 87.1075 17.613 86.9729 18.0188C86.7132 17.8314 86.5039 17.537 86.2649 17.1358C86.4234 16.9932 86.6114 16.9574 86.8754 16.8607C86.9899 16.7202 87.0284 16.6407 87.171 16.6431C87.2751 16.7251 87.2736 16.8703 87.2749 16.9429Z" fill="#150B0C"/>
<path d="M84.632 11.0578C84.3331 11.1265 84.043 11.0832 83.675 10.9507C83.9818 10.4347 84.3476 10.2409 84.632 11.0578Z" fill="#5A5757"/>
<path d="M87.2701 16.6118C87.2747 16.7256 87.1085 16.7416 87.0297 16.7709C86.7705 16.5945 86.4615 16.3548 86.8383 16.1274C87.0648 15.9908 87.2142 16.2611 87.2701 16.6118Z" fill="#2D2928"/>
<path d="M83.7836 14.8664C83.4165 14.6337 83.1855 14.3475 83.8799 14.1543C83.9547 14.3658 83.9224 14.5874 83.7836 14.8664Z" fill="#777372"/>
<path d="M90.3783 14.3033C90.3915 14.3256 90.3651 14.281 90.3783 14.3033Z" fill="#211B1A"/>
<path d="M86.363 12.156C87.3456 11.5686 88.0283 11.7944 88.1644 12.7741C88.2571 13.442 87.6453 13.8978 87.0088 13.8142C86.1339 13.6992 85.8311 13.1146 86.363 12.156Z" fill="#383636"/>
</mask>
<g mask="url(#mask0_637_1867)">
<rect x="-0.617188" y="-0.699707" width="123.353" height="95.1373" fill="#444444"/>
</g>
</svg>
